<svg width="16" height="16" viewBox="0 0 16 16" fill="none" xmlns="http://www.w3.org/2000/svg">
<g clip-path="url(#clip0_206_1512)">
<path d="M15.0294 8.16105C15.0294 7.64142 14.9827 7.14177 14.8961 6.66211H7.99435V9.5001H11.9382C11.765 10.4128 11.2454 11.1856 10.4659 11.7052V13.5506H12.8443C14.2299 12.2715 15.0294 10.3928 15.0294 8.16105Z" fill="#4285F4"/>
<path d="M7.99435 15.3227C9.97295 15.3227 11.6318 14.6698 12.8443 13.5506L10.4659 11.7053C9.81307 12.1449 8.98032 12.4114 7.99435 12.4114C6.08903 12.4114 4.47018 11.1257 3.89059 9.39355H1.45231V11.2856C2.65812 13.6772 5.12971 15.3227 7.99435 15.3227Z" fill="#34A853"/>
<path d="M3.89059 9.38666C3.74402 8.94697 3.65742 8.48063 3.65742 7.99431C3.65742 7.50798 3.74402 7.04165 3.89059 6.60196V4.70996H1.45231C0.952663 5.69593 0.666199 6.80848 0.666199 7.99431C0.666199 9.18013 0.952663 10.2927 1.45231 11.2787L3.35097 9.7997L3.89059 9.38666Z" fill="#2853AA"/>
<path d="M7.99435 3.58395C9.07359 3.58395 10.0329 3.95702 10.799 4.67651L12.8976 2.578C11.6251 1.39217 9.97295 0.666016 7.99435 0.666016C5.12971 0.666016 2.65812 2.31152 1.45231 4.70982L3.89059 6.60182C4.47018 4.86971 6.08903 3.58395 7.99435 3.58395Z" fill="#EA4335"/>
</g>
<defs>
<clipPath id="clip0_206_1512">
<rect width="15.9887" height="15.9887" fill="white"/>
</clipPath>
</defs>
</svg>
