<svg width="28" height="28" viewBox="0 0 28 28" fill="none" xmlns="http://www.w3.org/2000/svg">
<path d="M25.3406 20.9916L16.011 4.66482C15.8076 4.30587 15.5126 4.00731 15.1561 3.79959C14.7996 3.59187 14.3944 3.48242 13.9818 3.48242C13.5692 3.48242 13.164 3.59187 12.8076 3.79959C12.4511 4.00731 12.1561 4.30587 11.9526 4.66482L2.62308 20.9916C2.41746 21.3477 2.30964 21.7518 2.31055 22.163C2.31146 22.5742 2.42107 22.9779 2.62827 23.3331C2.83546 23.6883 3.13288 23.9824 3.49038 24.1856C3.84787 24.3888 4.25273 24.4938 4.66392 24.4901H23.3231C23.7323 24.4897 24.1342 24.3817 24.4884 24.1768C24.8426 23.9719 25.1367 23.6774 25.3412 23.3229C25.5456 22.9684 25.6532 22.5664 25.6531 22.1572C25.6529 21.7479 25.5452 21.346 25.3406 20.9916Z" stroke="#E7000B" stroke-width="2.33239" stroke-linecap="round" stroke-linejoin="round"/>
<path d="M13.9941 10.4961V15.1609" stroke="#E7000B" stroke-width="2.33239" stroke-linecap="round" stroke-linejoin="round"/>
<path d="M13.9941 19.8252H14.0058" stroke="#E7000B" stroke-width="2.33239" stroke-linecap="round" stroke-linejoin="round"/>
</svg>
