<svg width="16" height="16" viewBox="0 0 16 16" fill="none" xmlns="http://www.w3.org/2000/svg">
<g clip-path="url(#clip0_627_2737)">
<path d="M14.4763 11.9914L9.14676 2.66471C9.03055 2.45966 8.86203 2.2891 8.65839 2.17044C8.45475 2.05178 8.22327 1.98926 7.98758 1.98926C7.75189 1.98926 7.52041 2.05178 7.31677 2.17044C7.11313 2.2891 6.94461 2.45966 6.8284 2.66471L1.49885 11.9914C1.38139 12.1949 1.3198 12.4257 1.32032 12.6606C1.32084 12.8955 1.38345 13.1261 1.50181 13.329C1.62017 13.5319 1.79008 13.6999 1.9943 13.816C2.19852 13.9321 2.42979 13.9921 2.66469 13.99H13.3238C13.5576 13.9898 13.7872 13.928 13.9895 13.811C14.1919 13.694 14.3599 13.5257 14.4767 13.3232C14.5934 13.1207 14.6549 12.891 14.6548 12.6573C14.6548 12.4235 14.5932 12.1939 14.4763 11.9914Z" stroke="white" stroke-width="1.33239" stroke-linecap="round" stroke-linejoin="round"/>
<path d="M7.99438 5.99609V8.66087" stroke="white" stroke-width="1.33239" stroke-linecap="round" stroke-linejoin="round"/>
<path d="M7.99438 11.3252H8.00105" stroke="white" stroke-width="1.33239" stroke-linecap="round" stroke-linejoin="round"/>
</g>
<defs>
<clipPath id="clip0_627_2737">
<rect width="15.9887" height="15.9887" fill="white"/>
</clipPath>
</defs>
</svg>
