<svg width="360" height="360" viewBox="0 0 360 360" fill="none" xmlns="http://www.w3.org/2000/svg">
<path d="M360 275.327H0V275.507H360V275.327Z" fill="#EBEBEB"/>
<path d="M323.928 286.912H300.082V287.092H323.928V286.912Z" fill="#EBEBEB"/>
<path d="M238.478 288.871H232.222V289.051H238.478V288.871Z" fill="#EBEBEB"/>
<path d="M299.362 280.23H285.545V280.41H299.362V280.23Z" fill="#EBEBEB"/>
<path d="M68.868 281.44H37.7712V281.62H68.868V281.44Z" fill="#EBEBEB"/>
<path d="M79.8408 281.44H75.2832V281.62H79.8408V281.44Z" fill="#EBEBEB"/>
<path d="M162.108 284.479H94.6584V284.659H162.108V284.479Z" fill="#EBEBEB"/>
<path d="M170.64 243.216H31.6152C30.5261 243.214 29.4822 242.78 28.7128 242.009C27.9434 241.238 27.5112 240.194 27.5112 239.104V43.6748C27.5207 42.5919 27.957 41.5566 28.7254 40.7935C29.4939 40.0305 30.5323 39.6015 31.6152 39.5996H170.64C171.73 39.5996 172.776 40.0328 173.547 40.8038C174.318 41.5748 174.751 42.6205 174.751 43.7108V239.104C174.751 240.195 174.318 241.24 173.547 242.011C172.776 242.782 171.73 243.216 170.64 243.216ZM31.6152 39.7436C30.5738 39.7455 29.5758 40.1605 28.8401 40.8976C28.1044 41.6346 27.6912 42.6334 27.6912 43.6748V239.104C27.6912 240.146 28.1044 241.145 28.8401 241.882C29.5758 242.619 30.5738 243.034 31.6152 243.036H170.64C171.682 243.034 172.681 242.619 173.418 241.882C174.155 241.145 174.569 240.146 174.571 239.104V43.6748C174.569 42.6328 174.155 41.634 173.418 40.8971C172.681 40.1603 171.682 39.7455 170.64 39.7436H31.6152Z" fill="#EBEBEB"/>
<path d="M326.383 243.216H187.351C186.261 243.214 185.217 242.78 184.446 242.009C183.676 241.239 183.242 240.194 183.24 239.104V43.6748C183.251 42.5913 183.689 41.5559 184.459 40.7931C185.228 40.0302 186.268 39.6014 187.351 39.5996H326.383C327.465 39.6034 328.501 40.0332 329.268 40.7961C330.035 41.5589 330.471 42.5932 330.48 43.6748V239.104C330.48 240.192 330.049 241.236 329.281 242.006C328.513 242.777 327.471 243.212 326.383 243.216ZM187.351 39.7436C186.309 39.7455 185.31 40.1603 184.574 40.8971C183.837 41.634 183.422 42.6328 183.42 43.6748V239.104C183.422 240.146 183.837 241.145 184.574 241.882C185.31 242.619 186.309 243.034 187.351 243.036H326.383C327.425 243.034 328.424 242.619 329.161 241.882C329.898 241.145 330.312 240.146 330.314 239.104V43.6748C330.312 42.6328 329.898 41.634 329.161 40.8971C328.424 40.1603 327.425 39.7455 326.383 39.7436H187.351Z" fill="#EBEBEB"/>
<path d="M151.654 77.5508H41.3136V168.501H151.654V77.5508Z" fill="#EBEBEB"/>
<path d="M63.0648 86.4648H48.744V100.786H63.0648V86.4648Z" fill="#F5F5F5"/>
<path d="M145.534 123.307H131.213V137.627H145.534V123.307Z" fill="#F5F5F5"/>
<path d="M80.7984 94.0098H66.4776V108.331H80.7984V94.0098Z" fill="#F5F5F5"/>
<path d="M129.384 127.813H115.063V142.134H129.384V127.813Z" fill="#F5F5F5"/>
<path d="M73.6344 128.146H53.0208V155.534H73.6344V128.146Z" fill="#F5F5F5"/>
<path d="M97.1712 128.354H76.5576V155.742H97.1712V128.354Z" fill="#F5F5F5"/>
<path d="M138.37 87.4795H117.756V114.868H138.37V87.4795Z" fill="#F5F5F5"/>
<path d="M323.345 57.9307H250.106V211.485H323.345V57.9307Z" fill="#EBEBEB"/>
<path d="M325.037 55.9287H248.414V63.1575H325.037V55.9287Z" fill="#E0E0E0"/>
<path d="M325.037 66.1172H248.414V69.7316H325.037V66.1172Z" fill="#E0E0E0"/>
<path d="M325.037 71.4814H248.414V75.0958H325.037V71.4814Z" fill="#E0E0E0"/>
<path d="M325.037 76.8447H248.414V80.4591H325.037V76.8447Z" fill="#E0E0E0"/>
<path d="M325.037 82.209H248.414V85.8234H325.037V82.209Z" fill="#E0E0E0"/>
<path d="M325.037 87.5664H248.414V91.1808H325.037V87.5664Z" fill="#E0E0E0"/>
<path d="M325.037 92.9297H248.414V96.5441H325.037V92.9297Z" fill="#E0E0E0"/>
<path d="M325.037 98.2939H248.414V101.908H325.037V98.2939Z" fill="#E0E0E0"/>
<path d="M325.037 103.658H248.414V107.273H325.037V103.658Z" fill="#E0E0E0"/>
<path d="M325.037 109.021H248.414V112.636H325.037V109.021Z" fill="#E0E0E0"/>
<path d="M325.037 114.379H248.414V117.993H325.037V114.379Z" fill="#E0E0E0"/>
<path d="M325.037 119.743H248.414V123.358H325.037V119.743Z" fill="#E0E0E0"/>
<path d="M325.037 125.106H248.414V128.721H325.037V125.106Z" fill="#E0E0E0"/>
<path d="M325.037 130.471H248.414V134.085H325.037V130.471Z" fill="#E0E0E0"/>
<path d="M325.037 135.835H248.414V139.449H325.037V135.835Z" fill="#E0E0E0"/>
<path d="M325.037 141.199H248.414V144.814H325.037V141.199Z" fill="#E0E0E0"/>
<path d="M325.037 146.556H248.414V150.17H325.037V146.556Z" fill="#E0E0E0"/>
<path d="M325.037 151.92H248.414V155.534H325.037V151.92Z" fill="#E0E0E0"/>
<path d="M325.037 157.283H248.414V160.898H325.037V157.283Z" fill="#E0E0E0"/>
<path d="M325.037 162.647H248.414V166.262H325.037V162.647Z" fill="#E0E0E0"/>
<path d="M325.037 168.012H248.414V171.626H325.037V168.012Z" fill="#E0E0E0"/>
<path d="M325.037 173.368H248.414V176.983H325.037V173.368Z" fill="#E0E0E0"/>
<path d="M325.037 178.732H248.414V182.347H325.037V178.732Z" fill="#E0E0E0"/>
<path d="M325.037 184.097H248.414V187.711H325.037V184.097Z" fill="#E0E0E0"/>
<path d="M325.037 189.46H248.414V193.074H325.037V189.46Z" fill="#E0E0E0"/>
<path d="M325.037 194.824H248.414V198.439H325.037V194.824Z" fill="#E0E0E0"/>
<path d="M325.037 200.188H248.414V203.803H325.037V200.188Z" fill="#E0E0E0"/>
<path d="M325.037 205.545H248.414V209.159H325.037V205.545Z" fill="#E0E0E0"/>
<path d="M52.3944 252.202C52.2864 251.482 49.7664 234.079 54.8136 228.074C55.3201 227.438 55.9625 226.923 56.6937 226.566C57.425 226.21 58.2266 226.022 59.04 226.015C69.228 225.77 70.6248 233.935 70.6392 234.043L69.4368 234.23C69.3864 233.935 68.184 227.03 59.0688 227.225C58.4333 227.235 57.8081 227.387 57.2388 227.67C56.6696 227.953 56.1706 228.359 55.7784 228.859C51.084 234.446 53.6184 251.849 53.6184 252.022L52.3944 252.202Z" fill="#EBEBEB"/>
<path d="M51.7752 251.409L50.5656 251.373C50.5656 251.215 50.9688 235.353 43.1496 232.077C35.496 228.866 32.0472 235.461 31.9032 235.749L30.816 235.202C30.8592 235.123 34.8984 227.282 43.6248 230.954C52.2072 234.554 51.7968 250.725 51.7752 251.409Z" fill="#EBEBEB"/>
<path d="M51.84 252.655C51.84 252.403 51.768 227.318 46.8792 219.981C42.1848 212.94 34.6392 216.252 34.2864 216.381L33.7824 215.273C33.876 215.229 42.6168 211.37 47.8872 219.29C52.9848 226.929 53.0568 251.589 53.0568 252.633L51.84 252.655Z" fill="#EBEBEB"/>
<path d="M60.48 226.612C60.48 226.612 56.016 228.239 57.3336 232.127C58.6512 236.015 72.72 242.373 72.72 242.373C72.72 242.373 78.6096 236.973 73.2024 228.189C67.7952 219.405 60.5808 223.84 60.48 226.612Z" fill="#E0E0E0"/>
<path d="M46.6272 218.664C46.6272 218.664 49.788 218.325 49.5072 216.395C49.2264 214.466 37.2528 209.52 30.1608 217.533C30.1608 217.533 34.704 225.331 41.2704 225.453C47.8368 225.576 46.6272 218.664 46.6272 218.664Z" fill="#E0E0E0"/>
<path d="M43.3872 231.516C43.3872 231.516 45.5472 229.752 43.2144 228.895C40.8816 228.038 29.3184 228.283 29.196 239.695C29.196 239.695 42.6456 241.927 44.316 237.571C45.9864 233.215 43.3872 231.516 43.3872 231.516Z" fill="#E0E0E0"/>
<path d="M62.856 275.5H41.9904L39.7368 252.654H65.1024L62.856 275.5Z" fill="#EBEBEB"/>
<path d="M66.2184 250.135H38.628V255.175H66.2184V250.135Z" fill="#E0E0E0"/>
<path d="M312.624 254.815C312.624 254.815 308.556 245.937 313.2 237.189C317.844 228.441 319.198 226.389 316.231 224.589C313.265 222.789 311.911 231.588 311.911 231.588C311.911 231.588 309.413 225.54 311.479 219.211C313.546 212.882 314.834 202.572 312.012 201.47C309.19 200.369 311.479 214.329 309.031 219.089C307.787 215.746 306.983 212.256 306.641 208.706C306.31 203.623 306.835 195.501 304.61 193.421C302.386 191.34 300.96 192.78 303.17 203.997C304.479 210.702 305.202 217.508 305.33 224.337C305.33 224.337 300.506 209.621 297.266 209.217C294.026 208.814 294.026 213.537 296.806 217.692C299.585 221.846 304.92 229.212 305.798 233.042C305.798 233.042 300.499 221.961 295.718 225.36C290.938 228.758 299.873 235.44 303.84 237.859C307.807 240.278 310.572 255.427 310.572 255.427L312.624 254.815Z" fill="#E0E0E0"/>
<path d="M309.413 258.479C309.413 258.479 313.373 249.544 308.621 240.868C303.869 232.192 302.494 230.147 305.438 228.311C308.383 226.475 309.845 235.245 309.845 235.245C309.845 235.245 312.264 229.161 310.126 222.868C307.987 216.575 306.576 206.308 309.406 205.127C312.235 203.947 310.126 217.979 312.595 222.703C313.799 219.343 314.562 215.841 314.863 212.284C315.137 207.201 314.518 199.094 316.714 196.977C318.91 194.86 320.35 196.257 318.305 207.532C317.071 214.253 316.425 221.068 316.375 227.901C316.375 227.901 321.026 213.112 324.259 212.637C327.492 212.162 327.55 216.921 324.828 221.097C322.106 225.273 316.843 232.754 316.015 236.577C316.015 236.577 321.178 225.424 325.98 228.751C330.782 232.077 321.955 238.895 318.01 241.372C314.064 243.849 311.494 259.034 311.494 259.034L309.413 258.479Z" fill="#EBEBEB"/>
<path d="M327.679 252.086H294.962L297.605 275.5H325.03L327.679 252.086Z" fill="#EBEBEB"/>
<path d="M241.128 251.913L238.968 251.604C239.357 248.911 241.603 243.82 247.363 243.82C254.189 243.82 257.58 247.759 257.926 251.661L255.766 251.848C255.506 248.925 252.814 245.98 247.356 245.98C242.071 245.98 241.2 251.668 241.128 251.913Z" fill="#E0E0E0"/>
<path d="M266.4 250.013H231.314C229.394 250.013 227.837 251.57 227.837 253.49V271.634C227.837 273.555 229.394 275.112 231.314 275.112H266.4C268.321 275.112 269.878 273.555 269.878 271.634V253.49C269.878 251.57 268.321 250.013 266.4 250.013Z" fill="#EBEBEB"/>
<path d="M257.947 275.5C228.24 275.5 226.8 255.117 226.8 254.879L228.01 252.518C228.053 253.274 230.393 273.311 257.983 273.311C269.33 273.311 279.137 273.311 280.13 271.151C281.002 269.236 276.739 264.34 269.921 256.485V253.475C278.611 263.483 283.543 268.869 282.096 272.044C280.548 275.363 273.982 275.5 257.947 275.5Z" fill="#E0E0E0"/>
<path d="M180 307.843C257.099 307.843 319.601 304.194 319.601 299.692C319.601 295.191 257.099 291.542 180 291.542C102.901 291.542 40.3992 295.191 40.3992 299.692C40.3992 304.194 102.901 307.843 180 307.843Z" fill="#F5F5F5"/>
<path d="M239.558 66.2974C240.513 66.2974 241.429 66.6767 242.104 67.3519C242.779 68.027 243.158 68.9427 243.158 69.8974V187.423C243.158 188.378 242.779 189.293 242.104 189.969C241.429 190.644 240.513 191.023 239.558 191.023H81.756C80.8012 191.023 79.8855 190.644 79.2104 189.969C78.5353 189.293 78.156 188.378 78.156 187.423V69.8398C78.156 68.8851 78.5353 67.9694 79.2104 67.2943C79.8855 66.6191 80.8012 66.2398 81.756 66.2398H239.558M239.558 65.3398H81.756C81.1664 65.3398 80.5826 65.4564 80.0383 65.6829C79.4939 65.9094 78.9997 66.2413 78.5841 66.6596C78.1686 67.0778 77.8398 67.5741 77.6168 68.1199C77.3938 68.6657 77.281 69.2503 77.2848 69.8398V187.423C77.2848 188.609 77.7559 189.746 78.5944 190.585C79.4329 191.423 80.5702 191.894 81.756 191.894H239.558C240.744 191.894 241.882 191.423 242.72 190.585C243.559 189.746 244.03 188.609 244.03 187.423V69.8398C244.03 68.654 243.559 67.5167 242.72 66.6782C241.882 65.8397 240.744 65.3686 239.558 65.3686V65.3398Z" fill="#2853AA"/>
<path opacity="0.7" d="M239.558 65.3975H81.756C79.2866 65.3975 77.2848 67.3993 77.2848 69.8687V187.423C77.2848 189.892 79.2866 191.894 81.756 191.894H239.558C242.028 191.894 244.03 189.892 244.03 187.423V69.8687C244.03 67.3993 242.028 65.3975 239.558 65.3975Z" fill="white"/>
<path d="M225.425 78.5156H223.358V80.2364H225.425V78.5156Z" fill="#2853AA"/>
<path d="M225.418 174.96H223.358V171.576H225.418V174.96ZM225.418 168.192H223.358V164.808H225.418V168.192ZM225.418 161.431H223.358V158.047H225.418V161.431ZM225.418 154.663H223.358V151.287H225.418V154.663ZM225.418 147.903H223.358V144.519H225.418V147.903ZM225.418 141.135H223.358V137.758H225.418V141.135ZM225.418 134.374H223.358V130.99H225.418V134.374ZM225.418 127.613H223.358V124.229H225.418V127.613ZM225.418 120.845H223.358V117.461H225.418V120.845ZM225.418 114.084H223.358V110.7H225.418V114.084ZM225.418 107.316H223.358V103.939H225.418V107.316ZM225.418 100.555H223.358V97.1714H225.418V100.555ZM225.418 93.7874H223.358V90.4106H225.418V93.7874ZM225.418 87.0266H223.358V83.6426H225.418V87.0266Z" fill="#2853AA"/>
<path d="M225.425 178.308H223.358V180.028H225.425V178.308Z" fill="#2853AA"/>
<path d="M100.613 174.96H98.5464V171.576H100.613V174.96Z" fill="#2853AA"/>
<path d="M100.613 178.308H98.5464V180.028H100.613V178.308Z" fill="#2853AA"/>
<path d="M125.575 174.96H123.509V171.576H125.575V174.96ZM125.575 168.192H123.509V164.808H125.575V168.192ZM125.575 161.431H123.509V158.047H125.575V161.431ZM125.575 154.663H123.509V151.286H125.575V154.663Z" fill="#2853AA"/>
<path d="M125.575 178.308H123.509V180.028H125.575V178.308Z" fill="#2853AA"/>
<path d="M150.538 174.96H148.471V171.576H150.538V174.96ZM150.538 168.192H148.471V164.808H150.538V168.192ZM150.538 161.431H148.471V158.047H150.538V161.431ZM150.538 154.663H148.471V151.287H150.538V154.663ZM150.538 147.903H148.471V144.519H150.538V147.903Z" fill="#2853AA"/>
<path d="M150.538 178.308H148.471V180.028H150.538V178.308Z" fill="#2853AA"/>
<path d="M175.5 174.96H173.434V171.576H175.5V174.96ZM175.5 168.192H173.434V164.808H175.5V168.192ZM175.5 161.431H173.434V158.047H175.5V161.431ZM175.5 154.663H173.434V151.286H175.5V154.663ZM175.5 147.902H173.434V144.518H175.5V147.902ZM175.5 141.134H173.434V137.757H175.5V141.134ZM175.5 134.373H173.434V130.989H175.5V134.373ZM175.5 127.613H173.434V124.229H175.5V127.613Z" fill="#2853AA"/>
<path d="M175.5 178.308H173.434V180.028H175.5V178.308Z" fill="#2853AA"/>
<path d="M200.462 174.96H198.396V171.576H200.462V174.96ZM200.462 168.192H198.396V164.808H200.462V168.192ZM200.462 161.431H198.396V158.047H200.462V161.431ZM200.462 154.663H198.396V151.287H200.462V154.663ZM200.462 147.903H198.396V144.519H200.462V147.903ZM200.462 141.135H198.396V137.758H200.462V141.135ZM200.462 134.374H198.396V130.99H200.462V134.374ZM200.462 127.613H198.396V124.229H200.462V127.613ZM200.462 120.845H198.396V117.461H200.462V120.845ZM200.462 114.084H198.396V110.7H200.462V114.084Z" fill="#2853AA"/>
<path d="M200.462 178.308H198.396V180.028H200.462V178.308Z" fill="#2853AA"/>
<g opacity="0.7">
<path d="M225.425 78.5156H223.358V80.2364H225.425V78.5156Z" fill="white"/>
<path d="M225.418 174.959H223.358V171.575H225.418V174.959ZM225.418 168.191H223.358V164.807H225.418V168.191ZM225.418 161.43H223.358V158.046H225.418V161.43ZM225.418 154.662H223.358V151.286H225.418V154.662ZM225.418 147.902H223.358V144.518H225.418V147.902ZM225.418 141.134H223.358V137.757H225.418V141.134ZM225.418 134.373H223.358V130.989H225.418V134.373ZM225.418 127.612H223.358V124.228H225.418V127.612ZM225.418 120.844H223.358V117.46H225.418V120.844ZM225.418 114.083H223.358V110.699H225.418V114.083ZM225.418 107.315H223.358V103.938H225.418V107.315ZM225.418 100.554H223.358V97.1704H225.418V100.554ZM225.418 93.7864H223.358V90.4096H225.418V93.7864ZM225.418 87.0256H223.358V83.6416H225.418V87.0256Z" fill="white"/>
<path d="M225.425 178.308H223.358V180.028H225.425V178.308Z" fill="white"/>
<path d="M100.613 174.959H98.5464V171.575H100.613V174.959Z" fill="white"/>
<path d="M100.613 178.308H98.5464V180.028H100.613V178.308Z" fill="white"/>
<path d="M125.575 174.96H123.509V171.576H125.575V174.96ZM125.575 168.192H123.509V164.808H125.575V168.192ZM125.575 161.431H123.509V158.047H125.575V161.431ZM125.575 154.663H123.509V151.286H125.575V154.663Z" fill="white"/>
<path d="M125.575 178.308H123.509V180.028H125.575V178.308Z" fill="white"/>
<path d="M150.538 174.959H148.471V171.575H150.538V174.959ZM150.538 168.191H148.471V164.807H150.538V168.191ZM150.538 161.43H148.471V158.046H150.538V161.43ZM150.538 154.662H148.471V151.286H150.538V154.662ZM150.538 147.902H148.471V144.518H150.538V147.902Z" fill="white"/>
<path d="M150.538 178.308H148.471V180.028H150.538V178.308Z" fill="white"/>
<path d="M175.5 174.96H173.434V171.576H175.5V174.96ZM175.5 168.192H173.434V164.808H175.5V168.192ZM175.5 161.431H173.434V158.047H175.5V161.431ZM175.5 154.663H173.434V151.286H175.5V154.663ZM175.5 147.902H173.434V144.518H175.5V147.902ZM175.5 141.134H173.434V137.757H175.5V141.134ZM175.5 134.373H173.434V130.989H175.5V134.373ZM175.5 127.613H173.434V124.229H175.5V127.613Z" fill="white"/>
<path d="M175.5 178.308H173.434V180.028H175.5V178.308Z" fill="white"/>
<path d="M200.462 174.959H198.396V171.575H200.462V174.959ZM200.462 168.191H198.396V164.807H200.462V168.191ZM200.462 161.43H198.396V158.046H200.462V161.43ZM200.462 154.662H198.396V151.286H200.462V154.662ZM200.462 147.902H198.396V144.518H200.462V147.902ZM200.462 141.134H198.396V137.757H200.462V141.134ZM200.462 134.373H198.396V130.989H200.462V134.373ZM200.462 127.612H198.396V124.228H200.462V127.612ZM200.462 120.844H198.396V117.46H200.462V120.844ZM200.462 114.083H198.396V110.699H200.462V114.083Z" fill="white"/>
<path d="M200.462 178.308H198.396V180.028H200.462V178.308Z" fill="white"/>
</g>
<path d="M224.388 75.0596C223.811 75.0598 223.244 75.2046 222.737 75.4809C222.231 75.7572 221.802 76.1561 221.49 76.641C221.177 77.126 220.992 77.6815 220.95 78.2568C220.908 78.8321 221.01 79.4087 221.249 79.934L200.65 101.721C200.127 101.517 199.563 101.444 199.006 101.507C198.449 101.571 197.916 101.77 197.454 102.086C196.991 102.403 196.613 102.827 196.351 103.323C196.09 103.819 195.954 104.372 195.955 104.932C195.948 105.047 195.948 105.163 195.955 105.278L176.573 115.66C175.967 115.151 175.204 114.869 174.413 114.861C173.499 114.863 172.623 115.227 171.976 115.873C171.33 116.52 170.966 117.396 170.964 118.31C170.97 118.635 171.021 118.957 171.115 119.268L151.106 135.208C150.598 134.915 150.023 134.759 149.436 134.755C148.594 134.758 147.783 135.068 147.154 135.628C146.526 136.187 146.123 136.958 146.023 137.793L127.166 142.963C126.729 142.391 126.124 141.971 125.435 141.762C124.747 141.553 124.01 141.565 123.329 141.798C122.648 142.03 122.057 142.47 121.639 143.057C121.222 143.643 121 144.346 121.003 145.065C121.006 145.39 121.057 145.713 121.154 146.023L101.146 162C100.638 161.705 100.062 161.549 99.4752 161.546C98.7911 161.545 98.1219 161.746 97.5525 162.125C96.983 162.505 96.5389 163.044 96.2765 163.676C96.014 164.308 95.945 165.003 96.0781 165.674C96.2112 166.345 96.5405 166.962 97.0243 167.446C97.508 167.929 98.1245 168.259 98.7956 168.392C99.4666 168.525 100.162 168.456 100.794 168.194C101.426 167.931 101.965 167.487 102.345 166.918C102.724 166.348 102.925 165.679 102.924 164.995C102.918 164.67 102.867 164.348 102.773 164.037L122.789 148.096C123.297 148.39 123.872 148.547 124.459 148.55C125.299 148.546 126.107 148.235 126.734 147.677C127.361 147.119 127.763 146.352 127.865 145.519L146.722 140.342C147.158 140.917 147.764 141.34 148.454 141.551C149.144 141.761 149.882 141.75 150.565 141.517C151.248 141.284 151.841 140.843 152.258 140.254C152.676 139.666 152.898 138.961 152.892 138.24C152.886 137.915 152.835 137.593 152.741 137.282L172.75 121.341C173.258 121.634 173.833 121.791 174.42 121.795C175.335 121.795 176.213 121.432 176.861 120.785C177.509 120.139 177.874 119.261 177.876 118.346C177.876 118.224 177.876 118.116 177.84 117.993L197.222 107.618C197.821 108.116 198.57 108.396 199.349 108.413C200.127 108.429 200.888 108.18 201.506 107.707C202.125 107.234 202.564 106.565 202.752 105.81C202.941 105.055 202.867 104.258 202.543 103.55L223.15 81.7556C223.543 81.9146 223.963 81.9977 224.388 82.0004C225.276 81.9598 226.115 81.5783 226.729 80.9353C227.344 80.2923 227.686 79.4373 227.686 78.548C227.686 77.6587 227.344 76.8036 226.729 76.1606C226.115 75.5176 225.276 75.1362 224.388 75.0956V75.0596Z" fill="#2853AA"/>
<path d="M145.332 130.889C145.14 130.888 144.951 130.942 144.789 131.046C144.627 131.149 144.498 131.297 144.418 131.472H123.998C123.641 131.472 123.299 131.33 123.046 131.077C122.794 130.825 122.652 130.482 122.652 130.125V108.72H121.788V130.14C121.79 130.725 122.024 131.285 122.438 131.698C122.852 132.111 123.413 132.343 123.998 132.343H144.418C144.495 132.506 144.614 132.645 144.764 132.746C144.913 132.847 145.087 132.906 145.266 132.917C145.446 132.928 145.626 132.891 145.786 132.809C145.947 132.727 146.083 132.603 146.179 132.451C146.276 132.299 146.33 132.124 146.336 131.944C146.342 131.764 146.299 131.585 146.213 131.427C146.126 131.269 145.999 131.137 145.844 131.045C145.689 130.953 145.512 130.904 145.332 130.903V130.889Z" fill="#2853AA"/>
<path d="M134.201 102.751H110.232C109.202 102.751 108.367 103.586 108.367 104.616V111.391C108.367 112.421 109.202 113.256 110.232 113.256H134.201C135.231 113.256 136.066 112.421 136.066 111.391V104.616C136.066 103.586 135.231 102.751 134.201 102.751Z" fill="#2853AA"/>
<g opacity="0.4">
<path d="M145.332 130.889C145.14 130.888 144.951 130.942 144.789 131.046C144.627 131.149 144.498 131.297 144.418 131.472H123.998C123.641 131.472 123.299 131.33 123.046 131.077C122.794 130.825 122.652 130.482 122.652 130.125V108.72H121.788V130.14C121.79 130.725 122.024 131.285 122.438 131.698C122.852 132.111 123.413 132.343 123.998 132.343H144.418C144.495 132.506 144.614 132.645 144.764 132.746C144.913 132.847 145.087 132.906 145.266 132.917C145.446 132.928 145.626 132.891 145.786 132.809C145.947 132.727 146.083 132.603 146.179 132.451C146.276 132.299 146.33 132.124 146.336 131.944C146.342 131.764 146.299 131.585 146.213 131.427C146.126 131.269 145.999 131.137 145.844 131.045C145.689 130.953 145.512 130.904 145.332 130.903V130.889Z" fill="white"/>
<path d="M134.201 102.751H110.232C109.202 102.751 108.367 103.586 108.367 104.616V111.391C108.367 112.421 109.202 113.256 110.232 113.256H134.201C135.231 113.256 136.066 112.421 136.066 111.391V104.616C136.066 103.586 135.231 102.751 134.201 102.751Z" fill="white"/>
</g>
<path d="M174.852 109.13V78.2637H173.995V109.13C173.786 109.228 173.616 109.394 173.513 109.601C173.411 109.808 173.382 110.044 173.432 110.27C173.482 110.496 173.608 110.697 173.788 110.842C173.968 110.987 174.192 111.066 174.424 111.066C174.655 111.066 174.879 110.987 175.059 110.842C175.239 110.697 175.365 110.496 175.415 110.27C175.465 110.044 175.436 109.808 175.334 109.601C175.232 109.394 175.062 109.228 174.852 109.13Z" fill="#2853AA"/>
<path d="M186.408 73.0078H162.439C161.409 73.0078 160.574 73.8427 160.574 74.8726V81.6478C160.574 82.6777 161.409 83.5126 162.439 83.5126H186.408C187.438 83.5126 188.273 82.6777 188.273 81.6478V74.8726C188.273 73.8427 187.438 73.0078 186.408 73.0078Z" fill="#2853AA"/>
<g opacity="0.4">
<path d="M174.852 109.13V78.2637H173.995V109.13C173.786 109.228 173.616 109.394 173.513 109.601C173.411 109.808 173.382 110.044 173.432 110.27C173.482 110.496 173.608 110.697 173.788 110.842C173.968 110.987 174.193 111.066 174.424 111.066C174.655 111.066 174.879 110.987 175.059 110.842C175.239 110.697 175.365 110.496 175.415 110.27C175.465 110.044 175.436 109.808 175.334 109.601C175.232 109.394 175.062 109.228 174.852 109.13Z" fill="white"/>
<path d="M186.408 73.0078H162.439C161.409 73.0078 160.574 73.8427 160.574 74.8726V81.6478C160.574 82.6777 161.409 83.5126 162.439 83.5126H186.408C187.438 83.5126 188.273 82.6777 188.273 81.6478V74.8726C188.273 73.8427 187.438 73.0078 186.408 73.0078Z" fill="white"/>
</g>
<path d="M232.207 184.55H89.7768C89.7768 183.828 90.0633 183.135 90.5735 182.623C91.0837 182.112 91.7759 181.823 92.4984 181.821H229.478C230.202 181.821 230.896 182.109 231.408 182.621C231.92 183.132 232.207 183.826 232.207 184.55Z" fill="#2853AA"/>
<path opacity="0.4" d="M232.207 184.55H89.7768C89.7768 183.828 90.0633 183.135 90.5735 182.623C91.0837 182.112 91.7759 181.823 92.4984 181.821H229.478C230.202 181.821 230.896 182.109 231.408 182.621C231.92 183.132 232.207 183.826 232.207 184.55Z" fill="white"/>
<path opacity="0.2" d="M124.459 147.535C125.823 147.535 126.929 146.429 126.929 145.065C126.929 143.701 125.823 142.596 124.459 142.596C123.095 142.596 121.99 143.701 121.99 145.065C121.99 146.429 123.095 147.535 124.459 147.535Z" fill="white"/>
<path opacity="0.4" d="M149.443 140.68C150.807 140.68 151.913 139.575 151.913 138.211C151.913 136.847 150.807 135.741 149.443 135.741C148.079 135.741 146.974 136.847 146.974 138.211C146.974 139.575 148.079 140.68 149.443 140.68Z" fill="white"/>
<path opacity="0.6" d="M174.42 120.78C175.784 120.78 176.89 119.674 176.89 118.31C176.89 116.947 175.784 115.841 174.42 115.841C173.056 115.841 171.95 116.947 171.95 118.31C171.95 119.674 173.056 120.78 174.42 120.78Z" fill="white"/>
<path opacity="0.8" d="M199.404 107.402C200.768 107.402 201.874 106.296 201.874 104.932C201.874 103.569 200.768 102.463 199.404 102.463C198.04 102.463 196.934 103.569 196.934 104.932C196.934 106.296 198.04 107.402 199.404 107.402Z" fill="white"/>
<path d="M224.388 80.9851C225.752 80.9851 226.858 79.8794 226.858 78.5155C226.858 77.1516 225.752 76.0459 224.388 76.0459C223.024 76.0459 221.918 77.1516 221.918 78.5155C221.918 79.8794 223.024 80.9851 224.388 80.9851Z" fill="white"/>
<path d="M311.659 182.16L314.726 190.224C314.726 190.224 318.24 192.204 318.506 192.766C318.773 193.327 319.55 200.196 318.996 200.923C318.442 201.651 311.285 199.757 311.27 199.008C311.256 198.259 310.918 192.125 310.918 192.125L306.799 183.312L311.659 182.16Z" fill="#E4897B"/>
<path d="M296.82 118.534C302.155 121.731 302.724 150.769 303.581 153.483C304.438 156.197 314.986 186.099 314.986 186.099L307.57 188.979C307.57 188.979 297.022 166.767 294.746 160.481C292.471 154.196 290.945 139.961 290.945 139.961L296.82 118.534Z" fill="#2853AA"/>
<path opacity="0.2" d="M296.82 118.534C302.155 121.731 302.724 150.769 303.581 153.483C304.438 156.197 314.986 186.099 314.986 186.099L307.57 188.979C307.57 188.979 297.022 166.767 294.746 160.481C292.471 154.196 290.945 139.961 290.945 139.961L296.82 118.534Z" fill="#0A0A0A"/>
<path d="M289.562 114.747C281.527 110.333 271.145 111.262 271.145 111.262L261.886 124.352L248.818 171.073L250.74 172.822L251.561 169.114L287.093 172.714L287.69 177.553L289.735 176.552L290.945 119.117L289.562 114.747Z" fill="#2853AA"/>
<path opacity="0.4" d="M289.562 114.747C281.527 110.333 271.145 111.262 271.145 111.262L261.886 124.352L248.818 171.073L250.74 172.822L251.561 169.114L287.093 172.714L287.69 177.553L289.735 176.552L290.945 119.117L289.562 114.747Z" fill="#0A0A0A"/>
<path d="M239.198 80.6907L236.635 72.0003C236.932 70.1671 237.084 68.3134 237.089 66.4563C236.938 64.8723 233.215 61.8411 232.049 60.7755C230.882 59.7099 226.058 63.1659 226.289 63.9147C226.519 64.6635 229.334 70.5315 230.227 71.2083L231.667 72.0219L233.892 82.9659L239.198 80.6907Z" fill="#E4897B"/>
<path d="M264.017 111.974C255.866 107.798 249.653 101.347 247.37 97.5744C245.088 93.8016 238.37 74.0664 238.37 74.0664L231.278 75.1464C231.278 75.1464 235.548 99.3888 237.83 104.666C240.113 109.944 261.065 129.096 261.065 129.096L264.017 111.974Z" fill="#2853AA"/>
<path opacity="0.2" d="M264.017 111.974C255.866 107.798 249.653 101.347 247.37 97.5744C245.088 93.8016 238.37 74.0664 238.37 74.0664L231.278 75.1464C231.278 75.1464 235.548 99.3888 237.83 104.666C240.113 109.944 261.065 129.096 261.065 129.096L264.017 111.974Z" fill="#0A0A0A"/>
<path d="M258.718 294.157L252.878 294.776L251.777 282.176L257.623 281.557L258.718 294.157Z" fill="#E4897B"/>
<path d="M287.863 293.731H282.204L281.736 280.62H287.402L287.863 293.731Z" fill="#E4897B"/>
<path d="M281.419 293.076H288.295C288.408 293.077 288.517 293.116 288.604 293.186C288.692 293.257 288.753 293.355 288.778 293.465L289.894 298.505C289.938 298.722 289.895 298.947 289.774 299.132C289.652 299.317 289.462 299.446 289.246 299.491C289.186 299.498 289.125 299.498 289.066 299.491C286.841 299.455 285.221 299.319 282.427 299.319C280.706 299.319 275.515 299.499 273.139 299.499C270.763 299.499 270.454 297.151 271.426 296.935C275.789 295.985 279.072 294.667 280.469 293.415C280.731 293.184 281.071 293.063 281.419 293.076Z" fill="#0A0A0A"/>
<path d="M279.547 294.07C279.163 294.1 278.779 293.998 278.46 293.782C278.355 293.696 278.274 293.585 278.225 293.459C278.176 293.333 278.16 293.196 278.179 293.062C278.176 292.984 278.197 292.906 278.238 292.84C278.279 292.773 278.339 292.72 278.41 292.687C279.036 292.363 280.865 293.487 281.066 293.616C281.089 293.629 281.107 293.648 281.119 293.671C281.13 293.694 281.135 293.72 281.131 293.746C281.128 293.773 281.116 293.798 281.098 293.819C281.08 293.839 281.057 293.854 281.03 293.861C280.545 293.984 280.048 294.054 279.547 294.07ZM278.705 292.896C278.645 292.889 278.584 292.902 278.532 292.932C278.496 292.932 278.453 292.983 278.446 293.091C278.434 293.18 278.445 293.27 278.476 293.354C278.508 293.438 278.559 293.513 278.626 293.573C279.261 293.861 279.981 293.897 280.642 293.674C280.053 293.291 279.395 293.027 278.705 292.896Z" fill="#2853AA"/>
<path d="M280.994 293.869H280.93C280.346 293.552 279.216 292.306 279.331 291.709C279.351 291.609 279.405 291.519 279.484 291.455C279.563 291.39 279.661 291.355 279.763 291.356C279.865 291.342 279.968 291.351 280.066 291.381C280.164 291.411 280.255 291.461 280.332 291.529C280.987 292.061 281.124 293.689 281.131 293.768C281.13 293.792 281.124 293.815 281.113 293.836C281.102 293.858 281.086 293.876 281.066 293.89C281.041 293.891 281.016 293.883 280.994 293.869ZM279.857 291.601H279.792C279.619 291.601 279.605 291.701 279.598 291.737C279.526 292.105 280.246 293.048 280.829 293.487C280.791 292.842 280.557 292.224 280.159 291.716C280.075 291.644 279.968 291.603 279.857 291.601Z" fill="#2853AA"/>
<path d="M252.259 292.896H259.135C259.248 292.897 259.357 292.936 259.444 293.006C259.532 293.077 259.593 293.175 259.618 293.285L260.734 298.325C260.778 298.542 260.735 298.768 260.614 298.953C260.492 299.137 260.302 299.267 260.086 299.312C260.026 299.319 259.965 299.319 259.906 299.312C257.681 299.276 256.061 299.139 253.267 299.139C251.546 299.139 246.355 299.319 243.979 299.319C241.603 299.319 241.294 296.972 242.266 296.756C246.629 295.805 249.912 294.488 251.309 293.235C251.571 293.004 251.911 292.883 252.259 292.896Z" fill="#0A0A0A"/>
<path d="M250.387 293.89C250.003 293.92 249.619 293.819 249.3 293.602C249.195 293.516 249.114 293.405 249.065 293.279C249.016 293.153 249 293.016 249.019 292.882C249.016 292.804 249.037 292.727 249.078 292.66C249.119 292.593 249.179 292.54 249.25 292.508C249.876 292.184 251.705 293.307 251.906 293.436C251.929 293.449 251.947 293.468 251.959 293.491C251.97 293.514 251.975 293.54 251.971 293.566C251.968 293.593 251.956 293.619 251.938 293.639C251.92 293.66 251.897 293.674 251.87 293.681C251.385 293.804 250.888 293.874 250.387 293.89ZM249.545 292.716C249.485 292.71 249.424 292.722 249.372 292.752C249.336 292.752 249.293 292.803 249.286 292.911C249.274 293 249.285 293.09 249.316 293.174C249.348 293.258 249.399 293.333 249.466 293.393C250.101 293.681 250.821 293.717 251.482 293.494C250.893 293.111 250.235 292.847 249.545 292.716Z" fill="#2853AA"/>
<path d="M251.834 293.688H251.77C251.186 293.371 250.056 292.125 250.171 291.528C250.191 291.428 250.245 291.338 250.324 291.274C250.403 291.21 250.501 291.175 250.603 291.175C250.705 291.162 250.808 291.17 250.906 291.2C251.004 291.23 251.095 291.28 251.172 291.348C251.827 291.881 251.964 293.508 251.971 293.587C251.97 293.611 251.964 293.635 251.953 293.656C251.942 293.677 251.926 293.695 251.906 293.709C251.881 293.71 251.856 293.702 251.834 293.688ZM250.697 291.391H250.632C250.459 291.391 250.445 291.492 250.438 291.528C250.366 291.895 251.086 292.838 251.669 293.277C251.631 292.633 251.397 292.015 250.999 291.506C250.915 291.434 250.808 291.394 250.697 291.391Z" fill="#2853AA"/>
<path opacity="0.2" d="M257.623 281.557L251.777 282.176L252.353 288.677L258.192 288.058L257.623 281.557Z" fill="#0A0A0A"/>
<path opacity="0.2" d="M287.402 280.628H281.736L281.981 287.389H287.647L287.402 280.628Z" fill="#0A0A0A"/>
<path d="M285.062 165.601H255.024C252.144 181.203 243.223 236.398 249.638 285.574L259.812 284.314C259.812 284.314 258.869 219.039 267.84 194.905C268.877 207.821 270.101 221.545 271.166 228.881C273.78 246.881 279.374 286.215 279.374 286.215H289.728C289.728 286.215 287.611 248.566 286.632 230.876C285.566 211.681 285.12 169.561 285.062 165.601Z" fill="#0A0A0A"/>
<path opacity="0.2" d="M267.84 194.905C266.362 199.136 265.239 203.483 264.485 207.901C263.642 196.381 267.005 184.22 267.005 184.22L267.84 194.905Z" fill="#0A0A0A"/>
<path d="M248.479 287.957L261.065 286.085L260.683 282.601L247.586 284.321L248.479 287.957Z" fill="#2853AA"/>
<path opacity="0.6" d="M248.479 287.957L261.065 286.085L260.683 282.601L247.586 284.321L248.479 287.957Z" fill="white"/>
<path d="M278.136 286.301H290.347V282.651L277.675 282.413L278.136 286.301Z" fill="#2853AA"/>
<path opacity="0.6" d="M278.136 286.301H290.347V282.651L277.675 282.413L278.136 286.301Z" fill="white"/>
<path d="M254.772 165.975H285.012V169.575L254.383 169.207L254.772 165.975Z" fill="#0A0A0A"/>
<path opacity="0.2" d="M254.772 165.975H285.012V169.575L254.383 169.207L254.772 165.975Z" fill="white"/>
<path d="M275.292 164.354H274.212V170.748H275.292V164.354Z" fill="#0A0A0A"/>
<path d="M259.992 164.354H258.912V170.748H259.992V164.354Z" fill="#0A0A0A"/>
<path d="M264.017 111.975C264.017 111.975 283.097 113.307 296.82 118.534C296.82 118.534 286.891 149.227 285.034 167.134L254.794 165.975C254.794 165.975 256.925 129.845 264.017 111.975Z" fill="#2853AA"/>
<path opacity="0.7" d="M296.82 118.534C296.82 118.534 294.84 124.654 292.5 133.013C291.629 136.124 290.7 139.544 289.8 143.093C287.712 151.345 285.768 160.208 285.048 167.149L254.808 165.989C254.808 165.989 256.968 129.86 264.053 111.989C264.017 111.975 283.097 113.307 296.82 118.534Z" fill="white"/>
<path d="M286.265 115.265C283.234 117.425 276.631 115.725 276.631 115.725C276.631 115.725 272.578 114.091 273.607 112.881C276.12 112.766 277.452 111.751 278.122 110.34C278.495 109.456 278.691 108.506 278.698 107.546C278.726 107.016 278.726 106.485 278.698 105.955L287.69 100.8C286.128 104.709 283.925 112.01 286.265 115.265Z" fill="#E4897B"/>
<path opacity="0.2" d="M285.314 104.465C284.407 109.397 280.152 110.297 278.114 110.34C278.488 109.456 278.684 108.506 278.69 107.546L285.314 104.465Z" fill="#0A0A0A"/>
<path d="M280.656 84.8311C280.656 84.8311 275.465 90.7711 277.344 95.5231C279.223 100.275 287.028 88.0351 287.028 88.0351L280.656 84.8311Z" fill="#0A0A0A"/>
<path d="M284.148 107.216C282.726 107.832 281.14 107.964 279.635 107.592C278.13 107.22 276.789 106.365 275.818 105.156C274.53 103.62 273.878 101.649 273.996 99.6483C274.007 99.3684 274.036 99.0894 274.082 98.8131C274.925 93.7011 278.856 86.3211 284.789 86.3931C286.102 86.3965 287.392 86.7367 288.536 87.381C289.68 88.0254 290.639 88.9525 291.323 90.0736C292.006 91.1947 292.39 92.4723 292.439 93.7843C292.487 95.0964 292.199 96.3989 291.6 97.5675C289.094 102.6 287.878 105.675 284.148 107.216Z" fill="#E4897B"/>
<path d="M283.111 95.7173C282.967 96.1421 282.571 96.3869 282.298 96.2645C282.024 96.1421 281.945 95.7101 282.118 95.2925C282.29 94.8749 282.665 94.6301 282.938 94.7453C283.212 94.8605 283.291 95.2853 283.111 95.7173Z" fill="#0A0A0A"/>
<path d="M278.359 93.7153C278.208 94.1401 277.812 94.3777 277.538 94.2625C277.265 94.1473 277.186 93.7081 277.358 93.2905C277.531 92.8729 277.906 92.6281 278.179 92.7433C278.453 92.8585 278.525 93.3121 278.359 93.7153Z" fill="#0A0A0A"/>
<path d="M279.778 94.5576C278.737 95.6335 277.552 96.5591 276.257 97.308C276.458 97.6377 276.73 97.9189 277.052 98.1317C277.374 98.3445 277.739 98.4836 278.122 98.5392L279.778 94.5576Z" fill="#DE5753"/>
<path d="M285.235 94.7955C285.188 94.7838 285.145 94.7596 285.111 94.7253C285.077 94.691 285.053 94.6481 285.041 94.6011C284.966 94.2721 284.815 93.9652 284.6 93.7052C284.385 93.4451 284.112 93.239 283.802 93.1035C283.736 93.0806 283.681 93.032 283.65 92.9686C283.619 92.9051 283.614 92.8319 283.637 92.7651C283.661 92.6994 283.71 92.6456 283.773 92.6148C283.836 92.5839 283.908 92.5785 283.975 92.5995C284.369 92.7605 284.717 93.0142 284.992 93.3388C285.266 93.6634 285.459 94.0495 285.552 94.4643C285.563 94.4978 285.567 94.5333 285.564 94.5684C285.561 94.6036 285.55 94.6377 285.533 94.6687C285.517 94.6997 285.494 94.7269 285.466 94.7487C285.438 94.7705 285.406 94.7865 285.372 94.7955H285.235Z" fill="#0A0A0A"/>
<path d="M277.92 101.009C278.484 101.352 279.123 101.555 279.782 101.6C280.441 101.645 281.101 101.532 281.707 101.268C281.735 101.249 281.756 101.221 281.765 101.189C281.775 101.156 281.772 101.121 281.758 101.09C281.745 101.059 281.72 101.034 281.69 101.02C281.66 101.005 281.625 101.001 281.592 101.009C281.026 101.241 280.414 101.338 279.805 101.293C279.195 101.248 278.604 101.062 278.078 100.75C278.049 100.73 278.012 100.723 277.977 100.73C277.943 100.737 277.912 100.757 277.891 100.786C277.871 100.817 277.864 100.854 277.871 100.89C277.877 100.926 277.898 100.959 277.927 100.98L277.92 101.009Z" fill="#0A0A0A"/>
<path d="M277.006 91.2168C276.952 91.212 276.9 91.1948 276.854 91.1664C276.805 91.1153 276.777 91.0469 276.777 90.9756C276.777 90.9043 276.805 90.8359 276.854 90.7848C277.167 90.4945 277.545 90.2844 277.956 90.1728C278.367 90.0611 278.8 90.0513 279.216 90.144C279.284 90.1626 279.341 90.207 279.376 90.2676C279.411 90.3282 279.421 90.4002 279.403 90.468C279.382 90.5347 279.335 90.5906 279.274 90.6241C279.212 90.6576 279.14 90.6662 279.072 90.648C278.741 90.5862 278.399 90.6029 278.076 90.6967C277.752 90.7905 277.454 90.9587 277.207 91.188C277.145 91.2206 277.074 91.2308 277.006 91.2168Z" fill="#0A0A0A"/>
<path d="M290.484 89.5254L289.145 91.6278C289.436 91.9874 289.581 92.4439 289.551 92.9059C289.52 93.3678 289.316 93.8011 288.979 94.119C287.366 95.6526 287.042 99.0726 287.921 100.916C287.921 100.916 288.36 100.124 288.95 100.642C289.541 101.161 287.33 105.308 285.034 106.683C285.034 106.683 287.914 105.826 291.19 101.931C294.206 98.331 295.978 94.9686 295.891 92.9742L290.484 89.5254Z" fill="#0A0A0A"/>
<path d="M292.039 102.759C291.512 103.219 290.899 103.571 290.235 103.793C289.572 104.015 288.871 104.104 288.173 104.055C286.308 103.918 286.013 102.096 287.057 100.664C288 99.3964 290.117 97.8988 291.73 98.7628C293.342 99.6268 293.335 101.6 292.039 102.759Z" fill="#E4897B"/>
<path d="M287.028 89.0359C287.028 89.0359 287.921 88.2007 287.993 90.0799C288.065 91.9591 289.195 93.2335 291.758 94.5583C294.322 95.8831 295.135 95.9983 295.135 95.9983C295.135 95.9983 299.304 92.0599 294.948 87.5743C294.948 87.5743 295.15 85.2631 292.406 83.7583C287.69 81.1663 281.218 82.2391 278.942 84.8599C278.453 85.3721 278.117 86.0111 277.971 86.7046C277.826 87.3981 277.878 88.1184 278.122 88.7839C278.122 88.7839 285.566 84.8311 287.028 89.0359Z" fill="#0A0A0A"/>
<path d="M285.408 111.96L277.063 114.61L276.934 111.687L273.895 112.371C273.366 112.49 272.893 112.785 272.552 113.207C272.211 113.629 272.022 114.154 272.016 114.696L271.973 117.879L275.292 116.539C275.292 116.539 270.346 128.146 269.698 144.619C269.698 144.619 271.584 126.864 276.71 116.986L277.927 119.225L288.007 115.755L285.408 111.96Z" fill="#2853AA"/>
<path opacity="0.6" d="M285.408 111.96L277.063 114.61L276.934 111.687L273.895 112.371C273.366 112.49 272.893 112.785 272.552 113.207C272.211 113.629 272.022 114.154 272.016 114.696L271.973 117.879L275.292 116.539C275.292 116.539 270.346 128.146 269.698 144.619C269.698 144.619 271.584 126.864 276.71 116.986L277.927 119.225L288.007 115.755L285.408 111.96Z" fill="white"/>
<path d="M268.553 165.349H262.958V169.381H268.553V165.349Z" fill="#2853AA"/>
<path opacity="0.4" d="M268.553 165.349H262.958V169.381H268.553V165.349Z" fill="white"/>
<path d="M269.698 112.543C269.698 112.543 254.779 151.971 251.359 170.791L249.12 169.575C249.12 169.575 257.717 126.432 264.053 111.975L269.698 112.543Z" fill="#2853AA"/>
<path d="M290.462 116.481C290.462 116.481 284.141 148.219 287.028 174.233L290.462 173.469C290.462 173.469 294.617 131.954 296.82 118.533L290.462 116.481Z" fill="#2853AA"/>
<path d="M267.84 117.598L268.423 112.414L271.159 111.262C271.195 112.514 270.909 113.754 270.328 114.864C269.747 115.973 268.89 116.915 267.84 117.598Z" fill="#2853AA"/>
<path opacity="0.2" d="M267.84 117.598L268.423 112.414L271.159 111.262C271.195 112.514 270.909 113.754 270.328 114.864C269.747 115.973 268.89 116.915 267.84 117.598Z" fill="#0A0A0A"/>
<path d="M289.562 121.587C288.716 119.386 288.716 116.948 289.562 114.747L292.118 117.015L289.562 121.587Z" fill="#2853AA"/>
<path opacity="0.2" d="M289.562 121.587C288.716 119.386 288.716 116.948 289.562 114.747L292.118 117.015L289.562 121.587Z" fill="#0A0A0A"/>
<path d="M330.514 209.193L326.743 192.308C326.64 191.846 326.182 191.555 325.72 191.658L300.1 197.38C299.638 197.484 299.348 197.942 299.451 198.403L303.222 215.289C303.325 215.751 303.783 216.042 304.245 215.938L329.865 210.216C330.327 210.113 330.618 209.655 330.514 209.193Z" fill="#0A0A0A"/>
<path opacity="0.2" d="M330.514 209.193L326.743 192.308C326.64 191.846 326.182 191.555 325.72 191.658L300.1 197.38C299.638 197.484 299.348 197.942 299.451 198.403L303.222 215.289C303.325 215.751 303.783 216.042 304.245 215.938L329.865 210.216C330.327 210.113 330.618 209.655 330.514 209.193Z" fill="white"/>
<path d="M318.773 222.653L308.16 212.875C309.6 197.907 324.828 193.111 324.828 193.111L328.428 209.283C328.428 209.283 316.015 210.406 318.773 222.653Z" fill="#2853AA"/>
<path opacity="0.7" d="M318.773 222.653L308.16 212.875C309.6 197.907 324.828 193.111 324.828 193.111L328.428 209.283C328.428 209.283 316.015 210.406 318.773 222.653Z" fill="white"/>
<path d="M325.555 204.43L324.281 198.72C324.253 198.6 324.251 198.476 324.272 198.355C324.294 198.234 324.34 198.119 324.407 198.016C324.474 197.913 324.561 197.825 324.663 197.757C324.765 197.689 324.88 197.641 325.001 197.618L326.578 197.266C326.697 197.239 326.821 197.237 326.942 197.259C327.062 197.281 327.177 197.327 327.28 197.394C327.382 197.461 327.47 197.548 327.539 197.65C327.608 197.751 327.655 197.865 327.679 197.986L328.954 203.695C328.98 203.815 328.982 203.939 328.96 204.059C328.938 204.18 328.892 204.295 328.825 204.397C328.758 204.5 328.671 204.588 328.569 204.657C328.468 204.725 328.354 204.773 328.234 204.797L326.657 205.15C326.537 205.176 326.413 205.178 326.293 205.156C326.172 205.134 326.057 205.088 325.955 205.021C325.852 204.954 325.764 204.867 325.695 204.766C325.627 204.664 325.579 204.55 325.555 204.43ZM326.995 198.108C326.98 198.041 326.939 197.983 326.88 197.947C326.822 197.91 326.752 197.899 326.686 197.914L325.109 198.266C325.075 198.273 325.043 198.287 325.015 198.306C324.986 198.325 324.962 198.35 324.943 198.379C324.924 198.408 324.912 198.44 324.905 198.474C324.899 198.508 324.9 198.542 324.907 198.576L326.182 204.286C326.199 204.351 326.24 204.408 326.298 204.444C326.355 204.48 326.425 204.493 326.491 204.48L328.075 204.127C328.142 204.112 328.2 204.071 328.236 204.013C328.273 203.955 328.285 203.884 328.27 203.818L326.995 198.108Z" fill="#2853AA"/>
<g opacity="0.4">
<path d="M325.555 204.43L324.281 198.72C324.253 198.6 324.251 198.476 324.272 198.355C324.294 198.234 324.34 198.119 324.407 198.016C324.474 197.913 324.561 197.825 324.663 197.757C324.765 197.689 324.88 197.641 325.001 197.618L326.578 197.266C326.697 197.239 326.821 197.237 326.942 197.259C327.062 197.281 327.177 197.327 327.28 197.394C327.382 197.461 327.47 197.548 327.539 197.65C327.608 197.751 327.655 197.865 327.679 197.986L328.954 203.695C328.98 203.815 328.982 203.939 328.96 204.059C328.938 204.18 328.892 204.295 328.825 204.397C328.758 204.5 328.671 204.588 328.569 204.657C328.468 204.725 328.354 204.773 328.234 204.797L326.657 205.15C326.537 205.176 326.413 205.178 326.293 205.156C326.172 205.134 326.057 205.088 325.955 205.021C325.852 204.954 325.764 204.867 325.695 204.766C325.627 204.664 325.579 204.55 325.555 204.43ZM326.995 198.108C326.98 198.041 326.939 197.983 326.88 197.947C326.822 197.91 326.752 197.899 326.686 197.914L325.109 198.266C325.075 198.273 325.043 198.287 325.015 198.306C324.986 198.325 324.962 198.35 324.943 198.379C324.924 198.408 324.912 198.44 324.905 198.474C324.899 198.508 324.9 198.542 324.907 198.576L326.182 204.286C326.199 204.351 326.24 204.408 326.298 204.444C326.355 204.48 326.425 204.493 326.491 204.48L328.075 204.127C328.142 204.112 328.2 204.071 328.236 204.013C328.273 203.955 328.285 203.884 328.27 203.818L326.995 198.108Z" fill="white"/>
</g>
<path d="M86.076 167.689H89.676C89.676 167.689 91.7856 168.639 92.8728 168.409C93.96 168.178 100.793 164.168 100.411 163.484C100.03 162.8 85.4568 164.254 85.4568 164.254L86.076 167.689Z" fill="#EBB376"/>
<path d="M90.3384 207.951C90.3384 207.951 89.9784 213.315 89.2368 221.631C88.9704 224.669 88.6536 228.111 88.2792 231.811C86.6664 247.882 84.0744 269.187 80.4096 286.402L76.8096 286.344C76.8096 286.344 74.1384 260.352 78.6096 243.007L78.156 230.688L77.8392 222.199L77.3136 207.922L90.3384 207.951Z" fill="#EBB376"/>
<path d="M74.2535 210.471C74.2535 210.471 73.1159 215.172 71.1647 222.559C70.5887 224.719 69.9479 227.139 69.2423 229.723C64.9223 245.614 58.2263 268.359 51.1199 286.121L47.5703 285.451C47.5703 285.451 49.3631 259.38 56.7215 243.051L58.6727 228.55L59.3927 223.143L61.4015 208.253L74.2535 210.471Z" fill="#EBB376"/>
<path opacity="0.2" d="M59.4 223.143L71.1648 222.56C70.5888 224.72 69.948 227.139 69.2424 229.724L58.6728 228.55L59.4 223.143Z" fill="#0A0A0A"/>
<path opacity="0.2" d="M89.2367 221.659C88.9703 224.698 88.6535 228.139 88.2791 231.84L78.1487 230.717L77.8319 222.228L89.2367 221.659Z" fill="#0A0A0A"/>
<path d="M57.4992 144.064C55.152 144.986 55.98 166.809 60.0912 172.713C64.2024 178.617 88.2864 169.574 88.2864 169.574L87.7104 164.289L66.24 164.354L57.4992 144.064Z" fill="#0A0A0A"/>
<path d="M113.299 161.439L87.7103 162.973L90.7559 144.253C90.7941 144.058 90.8963 143.881 91.0463 143.75C91.1962 143.62 91.3855 143.543 91.5839 143.533L115.841 142.093C115.915 142.088 115.989 142.101 116.058 142.129C116.127 142.158 116.188 142.201 116.238 142.256C116.288 142.312 116.325 142.377 116.345 142.449C116.366 142.52 116.371 142.595 116.359 142.669L113.299 161.439Z" fill="#0A0A0A"/>
<path opacity="0.2" d="M113.299 161.439L87.7103 162.973L90.7559 144.253C90.7941 144.058 90.8963 143.881 91.0463 143.75C91.1962 143.62 91.3855 143.543 91.5839 143.533L115.841 142.093C115.915 142.088 115.989 142.101 116.058 142.129C116.127 142.158 116.188 142.201 116.238 142.256C116.288 142.312 116.325 142.377 116.345 142.449C116.366 142.52 116.371 142.595 116.359 142.669L113.299 161.439Z" fill="white"/>
<path d="M112.968 161.46L87.3792 162.994L90.4247 144.274C90.4617 144.078 90.5636 143.901 90.7138 143.77C90.864 143.639 91.0539 143.563 91.2527 143.554L115.51 142.114C115.583 142.108 115.658 142.12 115.726 142.147C115.795 142.175 115.857 142.217 115.907 142.272C115.957 142.327 115.994 142.392 116.015 142.463C116.036 142.534 116.04 142.609 116.028 142.682L112.968 161.46Z" fill="#0A0A0A"/>
<path d="M112.255 160.892L88.2864 162.332L91.2456 144.116L115.214 142.676L112.255 160.892Z" fill="#2853AA"/>
<path opacity="0.4" d="M112.255 160.892L88.2864 162.332L91.2456 144.116L115.214 142.676L112.255 160.892Z" fill="white"/>
<path d="M112.968 161.46L113.018 162.382C113.032 162.628 112.948 162.869 112.785 163.054C112.622 163.238 112.393 163.351 112.147 163.368L75.1968 165.6C75.0748 165.608 74.9524 165.591 74.8367 165.552C74.721 165.512 74.6143 165.45 74.5226 165.369C74.431 165.288 74.3562 165.19 74.3027 165.08C74.2491 164.97 74.2177 164.851 74.2104 164.729L74.1528 163.814L112.968 161.46Z" fill="#0A0A0A"/>
<path opacity="0.2" d="M112.968 161.46L113.018 162.382C113.032 162.628 112.948 162.869 112.785 163.054C112.622 163.238 112.393 163.351 112.147 163.368L75.1968 165.6C75.0748 165.608 74.9524 165.591 74.8367 165.552C74.721 165.512 74.6143 165.45 74.5226 165.369C74.431 165.288 74.3562 165.19 74.3027 165.08C74.2491 164.97 74.2177 164.851 74.2104 164.729L74.1528 163.814L112.968 161.46Z" fill="white"/>
<path opacity="0.2" d="M112.968 161.46L113.018 162.382C113.032 162.628 112.948 162.869 112.785 163.054C112.622 163.238 112.393 163.351 112.147 163.368L96.7536 164.29C96.5094 164.307 96.2681 164.228 96.082 164.069C95.8959 163.91 95.7802 163.684 95.76 163.44L95.7024 162.518L112.968 161.46Z" fill="white"/>
<g opacity="0.4">
<path d="M92.3471 158.573L91.368 158.63L91.7784 156.283L92.7576 156.226L92.3471 158.573Z" fill="white"/>
<path d="M94.212 158.458L93.2256 158.515L93.888 154.714L94.8744 154.656L94.212 158.458Z" fill="white"/>
<path d="M96.0695 158.343L95.0903 158.401L96.0047 153.145L96.9839 153.087L96.0695 158.343Z" fill="white"/>
<path d="M97.9343 158.227L96.9479 158.285L97.9919 152.302L98.9783 152.244L97.9343 158.227Z" fill="white"/>
<path d="M99.792 158.113L98.8128 158.17L99.9792 151.46L100.966 151.402L99.792 158.113Z" fill="white"/>
<path d="M101.657 157.997L100.67 158.055L102.096 149.89L103.075 149.825L101.657 157.997Z" fill="white"/>
<path d="M103.514 157.881L102.535 157.939L103.831 150.501L104.81 150.437L103.514 157.881Z" fill="white"/>
<path d="M105.379 157.766L104.393 157.824L105.566 151.114L106.546 151.049L105.379 157.766Z" fill="white"/>
<path d="M107.237 157.651L106.25 157.709L107.676 149.544L108.662 149.479L107.237 157.651Z" fill="white"/>
<path d="M109.102 157.536L108.115 157.594L109.915 147.24L110.902 147.183L109.102 157.536Z" fill="white"/>
</g>
<path d="M91.0368 227.995C95.4144 188.287 87.8472 174.78 87.8472 174.78L66.492 171.13C65.6459 175.073 65.0472 179.064 64.6992 183.082C64.6992 183.082 62.6472 190.426 61.992 192.442C58.4155 203.933 56.8208 215.948 57.276 227.974L91.0368 227.995Z" fill="#2853AA"/>
<g opacity="0.2">
<path d="M91.0368 227.996H57.276C57.276 227.996 57.1032 225.454 57.2256 221.285C57.4782 211.512 59.0823 201.82 61.992 192.485C62.6472 190.448 64.6992 183.125 64.6992 183.125C64.752 182.645 64.8024 182.165 64.8504 181.685C65.1815 178.153 65.7298 174.645 66.492 171.181L87.84 174.781C87.84 174.781 95.4144 188.288 91.0368 227.996Z" fill="#0A0A0A"/>
</g>
<path opacity="0.2" d="M77.6088 206.323C77.6088 206.323 68.9688 217.296 57.2256 221.285C57.4782 211.511 59.0822 201.819 61.992 192.485C62.6472 190.447 64.6992 183.125 64.6992 183.125C64.752 182.645 64.8024 182.165 64.8504 181.685L86.868 180C86.868 180 78.8904 187.999 70.308 190.08C70.344 190.08 70.6968 201.953 77.6088 206.323Z" fill="#0A0A0A"/>
<path d="M77.8536 125.281C77.8536 125.734 78.0912 126.101 78.3936 126.101C78.696 126.101 78.9336 125.727 78.9336 125.266C78.9336 124.805 78.6816 124.445 78.3864 124.445C78.0912 124.445 77.8536 124.834 77.8536 125.281Z" fill="#0A0A0A"/>
<path d="M76.9104 124.2C76.9593 124.207 77.0092 124.201 77.0549 124.182C77.1005 124.163 77.1401 124.132 77.1696 124.092C77.364 123.819 77.6194 123.595 77.9156 123.437C78.2118 123.28 78.5406 123.193 78.876 123.185C78.9474 123.189 79.0175 123.165 79.0713 123.118C79.1252 123.071 79.1584 123.004 79.1639 122.933C79.1659 122.898 79.1609 122.863 79.1493 122.83C79.1377 122.797 79.1196 122.767 79.0962 122.74C79.0728 122.714 79.0445 122.693 79.0129 122.678C78.9812 122.663 78.947 122.654 78.912 122.652C78.4891 122.653 78.0725 122.755 77.6968 122.949C77.3211 123.143 76.9972 123.424 76.7519 123.768C76.7302 123.796 76.7141 123.827 76.7044 123.861C76.6948 123.894 76.692 123.93 76.696 123.964C76.7 123.999 76.7108 124.033 76.7278 124.063C76.7448 124.094 76.7677 124.121 76.7952 124.143L76.9104 124.2Z" fill="#0A0A0A"/>
<path d="M78.2064 126.418C78.5219 127.405 78.97 128.345 79.5384 129.212C79.3121 129.353 79.0574 129.443 78.7924 129.476C78.5274 129.508 78.2585 129.482 78.0048 129.399L78.2064 126.418Z" fill="#DE726F"/>
<path d="M67.32 134.403C67.3726 134.452 67.4306 134.496 67.4928 134.532C68.3141 135.159 69.2513 135.616 70.2504 135.879C73.1664 136.555 75.1608 136.152 76.464 134.835C78.2856 132.855 78.7392 129.348 78.48 125.115C78.4375 123.43 78.1264 121.762 77.5584 120.175C77.5584 120.175 77.5584 120.111 77.5584 120.096C77.5584 120.082 77.5152 119.974 77.4864 119.916C77.1295 119.021 76.5535 118.229 75.8113 117.614C75.0692 116.999 74.1845 116.58 73.2384 116.395C72.4181 116.212 71.5804 116.118 70.74 116.115C62.4816 116.028 60.9984 129.694 67.32 134.403Z" fill="#EBB376"/>
<path opacity="0.2" d="M67.6151 134.878C68.4579 135.445 69.4051 135.84 70.4015 136.037C73.3319 136.635 75.3119 136.088 76.5791 134.713C74.8477 135.195 73.0058 135.093 71.3375 134.425C70.7235 134.212 70.069 134.142 69.4239 134.221C68.7788 134.299 68.1602 134.524 67.6151 134.878Z" fill="#0A0A0A"/>
<path d="M66.6575 141.985C66.1463 144.332 69.1919 145.289 69.1919 145.289C74.1671 143.165 75.0887 140.516 75.0887 140.516C70.9343 138.356 72.1367 132.229 72.1367 132.229L71.2943 132.646L65.3687 133.805C65.3687 133.805 67.0103 136.959 67.2263 137.679C68.3495 141.459 66.6575 141.985 66.6575 141.985Z" fill="#EBB376"/>
<path d="M77.5656 120.117C77.5656 120.117 78.0192 125.877 72.5256 128.39C72.5256 128.39 70.1712 134.402 66.708 134.481C61.9776 134.597 57.816 127.879 59.4504 121.032C61.5888 112.147 75.0456 111.427 77.5656 120.117Z" fill="#0A0A0A"/>
<path d="M75.3192 126.72C75.3192 125.82 74.5992 124.301 73.1592 124.51C71.7192 124.719 70.8984 128.304 74.4696 129.103C75.0096 129.226 75.3192 128.614 75.3192 126.72Z" fill="#EBB376"/>
<path d="M67.4928 113.969C67.4928 113.969 73.0152 112.572 76.0608 114.797C79.6608 117.389 80.9784 120.067 76.7808 124.229C76.7808 124.229 67.5144 121.227 64.4328 121.86C62.6316 122.223 60.8638 122.736 59.148 123.394C58.4784 117.274 64.4112 112.716 67.4928 113.969Z" fill="#0A0A0A"/>
<path d="M78.552 117.67C78.552 117.67 81.1079 119.412 79.9343 122.098C78.7607 124.784 75.3192 124.848 75.3192 124.848" stroke="#0A0A0A" stroke-width="0.36" stroke-linecap="round" stroke-linejoin="round"/>
<path d="M75.3191 125.338C75.3191 125.338 73.8791 132.005 76.1399 137.693C76.1399 137.693 63.0359 142.236 58.4783 139.767C53.9207 137.297 58.0967 129.01 58.2911 124.229C58.4855 119.448 60.5591 112.385 67.4927 113.969C74.4263 115.553 75.3191 125.338 75.3191 125.338Z" fill="#0A0A0A"/>
<path d="M87.4511 298.34C86.7808 297.798 86.0171 297.383 85.1975 297.116C85.1975 297.116 82.7423 294.675 81.5975 287.345L78.3791 286.503C77.8333 286.373 77.2607 286.412 76.7382 286.617C76.2156 286.822 75.7682 287.181 75.4559 287.648C75.3673 287.778 75.2993 287.921 75.2543 288.072C75.0884 288.859 74.9729 289.655 74.9087 290.456C74.7303 293.135 74.7158 295.824 74.8655 298.505H75.4415L75.6719 293.465C75.7583 291.744 77.1119 293.76 77.4503 295.625C77.7887 297.49 78.6239 299.441 82.3895 299.528C86.7383 299.585 88.5599 299.412 87.4511 298.34Z" fill="#0A0A0A"/>
<path d="M75.3047 287.705C75.0959 285.992 75.0311 283.011 75.0311 283.011L82.1735 283.803C82.1735 283.803 81.3095 287.194 82.0223 289.743C78.4223 288.792 75.3047 287.705 75.3047 287.705Z" fill="#0A0A0A"/>
<path d="M58.3919 298.34C57.7216 297.798 56.9579 297.383 56.1383 297.116C56.1383 297.116 53.6831 294.675 52.5383 287.345L49.3199 286.503C48.7741 286.373 48.2015 286.412 47.679 286.617C47.1564 286.822 46.709 287.181 46.3967 287.648C46.3081 287.778 46.2401 287.921 46.1951 288.072C46.0292 288.859 45.9137 289.655 45.8495 290.456C45.6711 293.135 45.6566 295.824 45.8063 298.505H46.3823L46.6127 293.465C46.6991 291.744 48.0527 293.76 48.3911 295.625C48.7295 297.49 49.5647 299.441 53.3303 299.528C57.6791 299.585 59.5007 299.412 58.3919 298.34Z" fill="#0A0A0A"/>
<path d="M46.2528 287.705C46.0368 285.992 45.972 283.011 45.972 283.011L53.1144 283.803C53.1144 283.803 52.2504 287.194 52.9632 289.743C49.3632 288.792 46.2528 287.705 46.2528 287.705Z" fill="#0A0A0A"/>
<path d="M57.4992 144.065C57.4992 144.065 62.0568 142.279 66.1392 141.185C69.3254 140.394 72.564 139.831 75.8304 139.5C78.9135 139.155 82.0176 139.032 85.1184 139.133C85.032 140.63 84.9672 142.013 84.9096 143.366C84.8304 145.116 84.7728 146.736 84.7368 148.241C84.6648 151.063 84.672 153.482 84.7368 155.628C84.8477 160.309 85.4144 164.968 86.4288 169.538L91.0368 180.72L63.4104 184.241L64.9728 173.232C60.3936 159.89 58.428 152.863 57.6864 148.874C56.88 144.418 57.4992 144.065 57.4992 144.065Z" fill="#0A0A0A"/>
<path opacity="0.1" d="M57.4992 144.065C57.4992 144.065 62.0568 142.279 66.1392 141.185C69.3254 140.394 72.564 139.831 75.8304 139.5C78.9135 139.155 82.0176 139.032 85.1184 139.133C85.032 140.63 84.9672 142.013 84.9096 143.366C84.8304 145.116 84.7728 146.736 84.7368 148.241C84.6648 151.063 84.672 153.482 84.7368 155.628C84.8477 160.309 85.4144 164.968 86.4288 169.538L91.0368 180.72L63.4104 184.241L64.9728 173.232C60.3936 159.89 58.428 152.863 57.6864 148.874C56.88 144.418 57.4992 144.065 57.4992 144.065Z" fill="white"/>
<path d="M112.32 168.48L118.584 170.345C119.329 170.117 120.093 169.958 120.866 169.87C121.529 169.87 127.224 172.03 127.987 172.75C128.75 173.47 124.387 177.308 124.15 177.495C123.912 177.682 118.015 175.335 117.734 175.22C117.454 175.104 117.353 174.219 117.353 174.219L110.419 172.462L112.32 168.48Z" fill="#EBB376"/>
<path d="M85.1255 139.104C88.5743 141.38 97.2431 162.951 98.3807 163.52C99.5183 164.088 116.381 168.927 116.381 168.927L114.278 174.183C114.278 174.183 95.8175 170.892 93.9671 169.604C92.1167 168.315 84.7439 154.916 84.7439 154.916C83.8271 152.006 83.3041 148.986 83.1887 145.937C83.1248 143.516 83.8004 141.132 85.1255 139.104Z" fill="#0A0A0A"/>
<path d="M193.363 272.204H188.237V299.521H193.363V272.204Z" fill="#2853AA"/>
<path d="M193.363 272.204H190.397V299.521H193.363V272.204Z" fill="#2853AA"/>
<path opacity="0.2" d="M193.363 272.204H190.397V299.521H193.363V272.204Z" fill="#0A0A0A"/>
<path opacity="0.2" d="M193.363 272.204V283.458L190.397 282.45L188.237 281.715V272.204H193.363Z" fill="#0A0A0A"/>
<path d="M214.963 272.204H209.837V299.521H214.963V272.204Z" fill="#2853AA"/>
<path d="M148.723 272.204H143.597V299.521H148.723V272.204Z" fill="#2853AA"/>
<path opacity="0.2" d="M148.723 272.204H143.597V299.521H148.723V272.204Z" fill="#0A0A0A"/>
<path d="M215.784 259.258V299.52H211.954V274.673H164.484V299.52H157.457V274.673H145.872V299.52H143.597V259.258H215.784Z" fill="#2853AA"/>
<path d="M159.3 259.258H158.026V252.93H160.574L159.3 259.258Z" fill="#0A0A0A"/>
<path opacity="0.2" d="M215.784 259.258V299.52H211.954V274.673H164.484V299.52H160.574V259.258H215.784Z" fill="#0A0A0A"/>
<path d="M200.916 247.255H200.959L188.546 244.253C188.269 244.167 187.98 244.121 187.69 244.116H159.732C158.96 244.115 158.216 244.402 157.646 244.922C157.076 245.442 156.721 246.156 156.65 246.924L156.089 252.886C156.025 253.581 156.199 254.277 156.582 254.86C156.965 255.444 157.535 255.88 158.198 256.097L158.393 256.147L158.63 256.205L170.748 259.164C171.001 259.234 171.263 259.27 171.526 259.272H199.44C200.211 259.272 200.954 258.984 201.524 258.465C202.094 257.945 202.45 257.232 202.522 256.464L203.083 250.503C203.15 249.795 202.971 249.086 202.576 248.494C202.181 247.903 201.595 247.466 200.916 247.255Z" fill="#0A0A0A"/>
<path opacity="0.2" d="M200.916 247.255H200.959L188.546 244.253C188.269 244.167 187.98 244.121 187.69 244.116H159.732C158.96 244.115 158.216 244.402 157.646 244.922C157.076 245.442 156.721 246.156 156.65 246.924L156.089 252.886C156.025 253.581 156.199 254.277 156.582 254.86C156.965 255.444 157.535 255.88 158.198 256.097L158.393 256.147L158.63 256.205L170.748 259.164C171.001 259.234 171.263 259.27 171.526 259.272H199.44C200.211 259.272 200.954 258.984 201.524 258.465C202.094 257.945 202.45 257.232 202.522 256.464L203.083 250.503C203.15 249.795 202.971 249.086 202.576 248.494C202.181 247.903 201.595 247.466 200.916 247.255Z" fill="white"/>
<path opacity="0.1" d="M199.44 259.258H171.497C171.066 259.258 170.639 259.168 170.245 258.994C169.851 258.82 169.497 258.565 169.207 258.247C168.916 257.929 168.695 257.553 168.557 257.145C168.42 256.736 168.369 256.303 168.408 255.874L168.97 249.912C169.041 249.145 169.397 248.431 169.967 247.912C170.537 247.393 171.28 247.105 172.051 247.104H200.009C200.44 247.105 200.866 247.195 201.26 247.369C201.655 247.543 202.009 247.797 202.299 248.116C202.59 248.434 202.811 248.809 202.948 249.218C203.086 249.626 203.137 250.059 203.098 250.488L202.536 256.45C202.464 257.22 202.106 257.936 201.533 258.455C200.96 258.975 200.214 259.261 199.44 259.258Z" fill="white"/>
<g opacity="0.1">
<path d="M191.765 253.671C191.654 254.513 191.242 255.286 190.606 255.849C189.969 256.411 189.151 256.724 188.302 256.731C187.907 256.745 187.514 256.674 187.149 256.522C186.784 256.369 186.457 256.14 186.189 255.849C185.922 255.559 185.721 255.213 185.599 254.837C185.478 254.461 185.439 254.063 185.486 253.671C185.601 252.831 186.013 252.06 186.649 251.5C187.285 250.939 188.102 250.626 188.95 250.618C189.344 250.603 189.737 250.673 190.102 250.825C190.467 250.976 190.794 251.205 191.062 251.495C191.329 251.785 191.531 252.13 191.652 252.506C191.774 252.882 191.812 253.279 191.765 253.671Z" fill="white"/>
<path d="M199.886 254.773H195.329C195.269 254.775 195.21 254.765 195.155 254.742C195.1 254.719 195.05 254.685 195.01 254.641C194.969 254.597 194.939 254.545 194.921 254.488C194.902 254.431 194.897 254.371 194.904 254.312L195.041 253.016C195.058 252.889 195.121 252.772 195.218 252.687C195.314 252.603 195.438 252.556 195.566 252.555H200.16C200.22 252.553 200.279 252.563 200.334 252.586C200.389 252.609 200.439 252.643 200.479 252.687C200.52 252.731 200.55 252.783 200.568 252.84C200.587 252.897 200.592 252.957 200.585 253.016L200.448 254.312C200.43 254.445 200.362 254.567 200.258 254.653C200.154 254.738 200.021 254.781 199.886 254.773Z" fill="white"/>
<path d="M175.406 257.358H173.786L173.952 255.788H175.572L175.406 257.358Z" fill="white"/>
<path d="M177.631 257.358H176.018L176.184 255.788H177.797L177.631 257.358Z" fill="white"/>
</g>
<path d="M114.79 211.846C114.619 211.845 114.455 211.787 114.322 211.681L112.558 210.19C112.412 210.067 112.32 209.891 112.304 209.7C112.288 209.51 112.348 209.321 112.471 209.175C112.594 209.029 112.771 208.938 112.961 208.922C113.151 208.905 113.34 208.965 113.486 209.089L115.25 210.579C115.362 210.674 115.442 210.801 115.479 210.943C115.516 211.085 115.509 211.235 115.459 211.372C115.409 211.51 115.318 211.629 115.198 211.714C115.079 211.799 114.936 211.845 114.79 211.846Z" fill="#2853AA"/>
<path d="M123.84 219.435C123.67 219.434 123.505 219.375 123.372 219.269C121.452 217.651 119.532 216.041 117.612 214.438C117.532 214.38 117.464 214.306 117.414 214.221C117.363 214.136 117.331 214.042 117.319 213.943C117.306 213.845 117.314 213.746 117.342 213.651C117.37 213.556 117.417 213.468 117.481 213.392C117.544 213.316 117.623 213.254 117.711 213.21C117.8 213.166 117.896 213.14 117.995 213.135C118.094 213.13 118.193 213.145 118.285 213.179C118.378 213.214 118.463 213.267 118.534 213.336C120.454 214.939 122.374 216.55 124.294 218.167C124.405 218.263 124.485 218.39 124.522 218.531C124.559 218.673 124.552 218.823 124.502 218.961C124.452 219.098 124.361 219.218 124.242 219.302C124.122 219.387 123.979 219.433 123.833 219.435H123.84Z" fill="#2853AA"/>
<path d="M131.04 225.548C130.868 225.548 130.702 225.487 130.572 225.375L127.152 222.495C127.08 222.434 127.02 222.359 126.977 222.274C126.934 222.19 126.907 222.098 126.9 222.003C126.892 221.908 126.903 221.813 126.932 221.723C126.961 221.633 127.008 221.549 127.069 221.476C127.131 221.404 127.206 221.345 127.29 221.301C127.375 221.258 127.467 221.232 127.561 221.224C127.656 221.216 127.751 221.227 127.842 221.256C127.932 221.286 128.016 221.332 128.088 221.394L131.501 224.274C131.573 224.335 131.633 224.409 131.676 224.493C131.72 224.577 131.746 224.669 131.754 224.763C131.762 224.858 131.752 224.953 131.723 225.043C131.694 225.133 131.648 225.217 131.587 225.289C131.52 225.369 131.437 225.434 131.342 225.479C131.248 225.524 131.145 225.547 131.04 225.548Z" fill="#2853AA"/>
<path d="M146.585 238.76C146.417 238.761 146.254 238.702 146.124 238.595C142.116 235.235 138.122 231.846 134.143 228.428L133.97 228.277C133.898 228.216 133.838 228.141 133.795 228.057C133.751 227.973 133.725 227.882 133.717 227.787C133.709 227.693 133.719 227.598 133.748 227.508C133.777 227.418 133.823 227.334 133.884 227.262C133.945 227.19 134.02 227.131 134.105 227.088C134.189 227.045 134.281 227.019 134.375 227.012C134.47 227.005 134.564 227.016 134.654 227.045C134.744 227.074 134.827 227.121 134.899 227.183L135.079 227.334C139.058 230.723 143.05 234.109 147.053 237.493C147.165 237.589 147.245 237.716 147.282 237.859C147.319 238.001 147.311 238.152 147.26 238.29C147.209 238.428 147.117 238.547 146.996 238.631C146.876 238.715 146.732 238.76 146.585 238.76Z" fill="#2853AA"/>
<path d="M153.85 244.801C153.681 244.801 153.518 244.743 153.389 244.635L149.94 241.755C149.868 241.694 149.808 241.62 149.764 241.536C149.721 241.452 149.694 241.36 149.686 241.266C149.678 241.171 149.689 241.076 149.718 240.986C149.746 240.896 149.793 240.812 149.854 240.74C149.977 240.596 150.151 240.506 150.34 240.49C150.529 240.474 150.716 240.533 150.862 240.654L154.31 243.534C154.383 243.594 154.444 243.668 154.488 243.752C154.532 243.836 154.559 243.927 154.568 244.022C154.577 244.116 154.567 244.211 154.538 244.302C154.51 244.392 154.465 244.476 154.404 244.549C154.336 244.629 154.251 244.693 154.155 244.736C154.059 244.78 153.955 244.802 153.85 244.801Z" fill="#2853AA"/>
<path d="M144.569 200.269C144.431 200.269 144.296 200.23 144.18 200.156C144.064 200.082 143.971 199.976 143.914 199.851L142.942 197.691C142.863 197.518 142.856 197.321 142.922 197.143C142.988 196.965 143.122 196.821 143.294 196.741C143.38 196.701 143.473 196.678 143.568 196.674C143.663 196.671 143.758 196.685 143.847 196.718C143.936 196.751 144.017 196.801 144.087 196.865C144.156 196.93 144.212 197.007 144.252 197.094L145.224 199.254C145.302 199.427 145.309 199.623 145.243 199.801C145.177 199.979 145.043 200.124 144.871 200.204C144.777 200.249 144.673 200.272 144.569 200.269Z" fill="#2853AA"/>
<path d="M150.998 214.02C150.861 214.021 150.726 213.982 150.61 213.908C150.494 213.834 150.401 213.728 150.343 213.603C148.817 210.248 147.463 207.339 146.138 204.718C146.096 204.633 146.071 204.54 146.065 204.446C146.059 204.351 146.071 204.256 146.102 204.166C146.132 204.076 146.18 203.993 146.242 203.922C146.305 203.85 146.381 203.792 146.466 203.75C146.551 203.708 146.644 203.683 146.738 203.676C146.833 203.67 146.928 203.683 147.018 203.713C147.108 203.743 147.191 203.791 147.262 203.854C147.334 203.916 147.392 203.992 147.434 204.077C148.745 206.72 150.12 209.636 151.654 213.005C151.732 213.179 151.737 213.377 151.67 213.555C151.602 213.733 151.467 213.877 151.294 213.956C151.201 213.998 151.1 214.02 150.998 214.02Z" fill="#2853AA"/>
<path d="M154.901 222.797C154.761 222.798 154.624 222.758 154.506 222.683C154.389 222.608 154.296 222.5 154.238 222.372C153.713 221.17 153.187 219.974 152.654 218.772C152.59 218.599 152.593 218.409 152.665 218.239C152.737 218.069 152.871 217.933 153.04 217.859C153.209 217.785 153.4 217.779 153.573 217.842C153.747 217.904 153.889 218.031 153.972 218.196C154.505 219.391 155.03 220.594 155.556 221.796C155.594 221.883 155.615 221.976 155.618 222.07C155.62 222.165 155.604 222.259 155.569 222.347C155.535 222.436 155.484 222.516 155.419 222.585C155.354 222.653 155.275 222.708 155.189 222.746C155.097 222.783 154.999 222.8 154.901 222.797Z" fill="#2853AA"/>
<path d="M163.253 241.121C163.118 241.121 162.986 241.083 162.871 241.012C162.756 240.941 162.664 240.839 162.605 240.718C160.243 235.944 158.04 231.026 156.017 226.418C155.978 226.332 155.958 226.239 155.955 226.144C155.953 226.05 155.969 225.955 156.003 225.867C156.038 225.779 156.089 225.698 156.154 225.63C156.219 225.561 156.297 225.506 156.384 225.468C156.471 225.43 156.564 225.409 156.658 225.406C156.753 225.404 156.847 225.421 156.935 225.455C157.024 225.489 157.104 225.54 157.173 225.605C157.241 225.671 157.296 225.749 157.334 225.835C159.35 230.429 161.546 235.332 163.894 240.077C163.949 240.186 163.975 240.308 163.97 240.431C163.965 240.554 163.928 240.673 163.864 240.777C163.8 240.882 163.71 240.969 163.603 241.029C163.496 241.089 163.376 241.12 163.253 241.121Z" fill="#2853AA"/>
<path d="M171.95 203.386C171.759 203.386 171.576 203.31 171.441 203.175C171.306 203.04 171.23 202.857 171.23 202.666V195.12C171.23 194.929 171.306 194.746 171.441 194.611C171.576 194.476 171.759 194.4 171.95 194.4C172.141 194.4 172.325 194.476 172.46 194.611C172.595 194.746 172.67 194.929 172.67 195.12V202.673C172.669 202.863 172.592 203.044 172.457 203.178C172.322 203.311 172.14 203.386 171.95 203.386Z" fill="#2853AA"/>
<path d="M171.994 212.033C171.803 212.033 171.62 211.958 171.485 211.823C171.349 211.688 171.274 211.504 171.274 211.313L171.23 207.533C171.23 207.343 171.306 207.159 171.441 207.024C171.576 206.889 171.759 206.813 171.95 206.813C172.141 206.813 172.325 206.889 172.46 207.024C172.595 207.159 172.67 207.343 172.67 207.533L172.714 211.321C172.714 211.512 172.638 211.695 172.503 211.83C172.368 211.965 172.185 212.041 171.994 212.041V212.033Z" fill="#2853AA"/>
<path d="M172.03 231.704C171.839 231.704 171.656 231.628 171.521 231.493C171.385 231.358 171.31 231.175 171.31 230.984C171.31 225.944 171.31 220.81 171.31 215.626C171.31 215.435 171.385 215.252 171.521 215.117C171.656 214.982 171.839 214.906 172.03 214.906C172.221 214.906 172.404 214.982 172.539 215.117C172.674 215.252 172.75 215.435 172.75 215.626C172.75 220.81 172.786 225.98 172.75 230.998C172.746 231.187 172.668 231.366 172.534 231.498C172.399 231.63 172.218 231.704 172.03 231.704Z" fill="#2853AA"/>
<path d="M171.95 241.121C171.759 241.121 171.576 241.045 171.441 240.91C171.306 240.775 171.23 240.592 171.23 240.401C171.23 238.91 171.266 237.427 171.281 235.937C171.281 235.746 171.357 235.563 171.492 235.428C171.627 235.293 171.81 235.217 172.001 235.217C172.192 235.217 172.375 235.293 172.51 235.428C172.645 235.563 172.721 235.746 172.721 235.937C172.721 237.427 172.721 238.91 172.67 240.401C172.67 240.592 172.595 240.775 172.46 240.91C172.325 241.045 172.141 241.121 171.95 241.121Z" fill="#2853AA"/>
<path d="M198.403 211.069C198.262 211.07 198.122 211.032 198 210.961C197.918 210.912 197.847 210.847 197.791 210.771C197.734 210.694 197.693 210.608 197.67 210.515C197.648 210.423 197.643 210.327 197.658 210.233C197.673 210.139 197.706 210.048 197.755 209.967L199.915 206.41C199.954 206.315 200.014 206.23 200.089 206.159C200.164 206.089 200.253 206.036 200.351 206.003C200.448 205.97 200.552 205.958 200.654 205.969C200.757 205.979 200.856 206.011 200.944 206.063C201.033 206.115 201.11 206.186 201.169 206.27C201.229 206.354 201.269 206.45 201.288 206.551C201.307 206.652 201.305 206.756 201.28 206.856C201.256 206.956 201.21 207.05 201.146 207.13L198.986 210.694C198.929 210.801 198.845 210.891 198.743 210.956C198.641 211.022 198.524 211.061 198.403 211.069Z" fill="#2853AA"/>
<path d="M188.496 227.261C188.367 227.261 188.24 227.226 188.129 227.16C187.965 227.063 187.846 226.904 187.799 226.719C187.751 226.534 187.779 226.338 187.877 226.174C189.936 222.675 192.679 218.081 195.595 213.61C195.7 213.451 195.863 213.34 196.049 213.301C196.235 213.261 196.429 213.298 196.589 213.401C196.669 213.453 196.737 213.52 196.791 213.598C196.845 213.677 196.882 213.765 196.902 213.858C196.921 213.951 196.922 214.047 196.904 214.14C196.886 214.234 196.85 214.323 196.798 214.402C193.918 218.844 191.167 223.416 189.115 226.908C189.051 227.016 188.961 227.105 188.852 227.167C188.744 227.229 188.621 227.261 188.496 227.261Z" fill="#2853AA"/>
<path d="M183.859 235.167C183.73 235.165 183.604 235.131 183.492 235.067C183.328 234.969 183.209 234.811 183.162 234.626C183.114 234.441 183.143 234.244 183.24 234.08L185.458 230.3C185.554 230.137 185.711 230.018 185.894 229.969C186.077 229.921 186.272 229.947 186.437 230.041C186.519 230.089 186.59 230.152 186.648 230.227C186.705 230.303 186.747 230.389 186.771 230.48C186.795 230.572 186.801 230.668 186.788 230.761C186.775 230.855 186.744 230.946 186.696 231.027L184.478 234.815C184.415 234.922 184.324 235.011 184.216 235.073C184.107 235.135 183.984 235.167 183.859 235.167Z" fill="#2853AA"/>
<path d="M179.59 242.259C179.457 242.258 179.328 242.22 179.215 242.151C179.134 242.101 179.064 242.036 179.008 241.959C178.952 241.883 178.912 241.796 178.89 241.703C178.868 241.611 178.864 241.515 178.879 241.421C178.894 241.328 178.928 241.238 178.978 241.157C179.573 240.197 180.163 239.237 180.749 238.277C180.854 238.133 181.008 238.033 181.183 237.996C181.357 237.959 181.539 237.988 181.693 238.078C181.847 238.168 181.962 238.311 182.017 238.481C182.071 238.651 182.061 238.835 181.987 238.997C181.397 239.969 180.806 240.941 180.202 241.913C180.138 242.018 180.048 242.105 179.941 242.166C179.834 242.226 179.713 242.258 179.59 242.259Z" fill="#2853AA"/>
<g opacity="0.7">
<path d="M114.79 211.846C114.619 211.845 114.455 211.787 114.322 211.681L112.558 210.19C112.412 210.067 112.32 209.891 112.304 209.7C112.288 209.51 112.348 209.321 112.471 209.175C112.594 209.029 112.771 208.938 112.961 208.922C113.151 208.905 113.34 208.965 113.486 209.089L115.25 210.579C115.362 210.674 115.442 210.801 115.479 210.943C115.516 211.085 115.509 211.235 115.459 211.372C115.409 211.51 115.318 211.629 115.198 211.714C115.079 211.799 114.936 211.845 114.79 211.846Z" fill="white"/>
<path d="M123.84 219.435C123.67 219.434 123.505 219.375 123.372 219.269C121.452 217.651 119.532 216.041 117.612 214.438C117.532 214.38 117.464 214.306 117.414 214.221C117.363 214.136 117.331 214.042 117.319 213.943C117.306 213.845 117.314 213.746 117.342 213.651C117.37 213.556 117.417 213.468 117.481 213.392C117.544 213.316 117.623 213.254 117.711 213.21C117.8 213.166 117.896 213.14 117.995 213.135C118.094 213.13 118.193 213.145 118.285 213.179C118.378 213.214 118.463 213.267 118.534 213.336C120.454 214.939 122.374 216.55 124.294 218.167C124.405 218.263 124.485 218.39 124.522 218.531C124.559 218.673 124.552 218.823 124.502 218.961C124.452 219.098 124.361 219.218 124.242 219.302C124.122 219.387 123.979 219.433 123.833 219.435H123.84Z" fill="white"/>
<path d="M131.04 225.548C130.868 225.548 130.702 225.487 130.572 225.375L127.152 222.495C127.08 222.434 127.02 222.359 126.977 222.274C126.934 222.19 126.907 222.098 126.9 222.003C126.892 221.908 126.903 221.813 126.932 221.723C126.961 221.633 127.008 221.549 127.069 221.476C127.131 221.404 127.206 221.345 127.29 221.301C127.375 221.258 127.467 221.232 127.561 221.224C127.656 221.216 127.751 221.227 127.842 221.256C127.932 221.286 128.016 221.332 128.088 221.394L131.501 224.274C131.573 224.335 131.633 224.409 131.676 224.493C131.72 224.577 131.746 224.669 131.754 224.763C131.762 224.858 131.752 224.953 131.723 225.043C131.694 225.133 131.648 225.217 131.587 225.289C131.52 225.369 131.437 225.434 131.342 225.479C131.248 225.524 131.145 225.547 131.04 225.548Z" fill="white"/>
<path d="M146.585 238.76C146.417 238.761 146.254 238.702 146.124 238.595C142.116 235.235 138.122 231.846 134.143 228.428L133.97 228.277C133.898 228.216 133.838 228.141 133.795 228.057C133.751 227.973 133.725 227.882 133.717 227.787C133.709 227.693 133.719 227.598 133.748 227.508C133.777 227.418 133.823 227.334 133.884 227.262C133.945 227.19 134.02 227.131 134.105 227.088C134.189 227.045 134.281 227.019 134.375 227.012C134.47 227.005 134.564 227.016 134.654 227.045C134.744 227.074 134.827 227.121 134.899 227.183L135.079 227.334C139.058 230.723 143.05 234.109 147.053 237.493C147.165 237.589 147.245 237.716 147.282 237.859C147.319 238.001 147.311 238.152 147.26 238.29C147.209 238.428 147.117 238.547 146.996 238.631C146.876 238.715 146.732 238.76 146.585 238.76Z" fill="white"/>
<path d="M153.85 244.801C153.681 244.801 153.518 244.743 153.389 244.635L149.94 241.755C149.868 241.694 149.808 241.62 149.764 241.536C149.721 241.452 149.694 241.36 149.686 241.266C149.678 241.171 149.689 241.076 149.718 240.986C149.746 240.896 149.793 240.812 149.854 240.74C149.977 240.596 150.151 240.506 150.34 240.49C150.529 240.474 150.716 240.533 150.862 240.654L154.31 243.534C154.383 243.594 154.444 243.668 154.488 243.752C154.532 243.836 154.559 243.927 154.568 244.022C154.577 244.116 154.567 244.211 154.538 244.302C154.51 244.392 154.465 244.476 154.404 244.549C154.336 244.629 154.251 244.693 154.155 244.736C154.059 244.78 153.955 244.802 153.85 244.801Z" fill="white"/>
<path d="M144.569 200.269C144.431 200.269 144.296 200.23 144.18 200.156C144.064 200.082 143.971 199.976 143.914 199.851L142.942 197.691C142.863 197.518 142.856 197.321 142.922 197.143C142.988 196.965 143.122 196.821 143.294 196.741C143.38 196.701 143.473 196.678 143.568 196.674C143.663 196.671 143.758 196.685 143.847 196.718C143.936 196.751 144.017 196.801 144.087 196.865C144.156 196.93 144.212 197.007 144.252 197.094L145.224 199.254C145.302 199.427 145.309 199.623 145.243 199.801C145.177 199.979 145.043 200.124 144.871 200.204C144.777 200.249 144.673 200.272 144.569 200.269Z" fill="white"/>
<path d="M150.998 214.02C150.861 214.021 150.726 213.982 150.61 213.908C150.494 213.834 150.401 213.728 150.343 213.603C148.817 210.248 147.463 207.339 146.138 204.718C146.096 204.633 146.071 204.54 146.065 204.446C146.059 204.351 146.071 204.256 146.102 204.166C146.132 204.076 146.18 203.993 146.242 203.922C146.305 203.85 146.381 203.792 146.466 203.75C146.551 203.708 146.644 203.683 146.738 203.676C146.833 203.67 146.928 203.683 147.018 203.713C147.108 203.743 147.191 203.791 147.262 203.854C147.334 203.916 147.392 203.992 147.434 204.077C148.745 206.72 150.12 209.636 151.654 213.005C151.732 213.179 151.737 213.377 151.67 213.555C151.602 213.733 151.467 213.877 151.294 213.956C151.201 213.998 151.1 214.02 150.998 214.02Z" fill="white"/>
<path d="M154.901 222.797C154.761 222.798 154.624 222.758 154.506 222.683C154.389 222.608 154.296 222.5 154.238 222.372C153.713 221.17 153.187 219.974 152.654 218.772C152.59 218.599 152.593 218.409 152.665 218.239C152.737 218.069 152.871 217.933 153.04 217.859C153.209 217.785 153.4 217.779 153.573 217.842C153.747 217.904 153.889 218.031 153.972 218.196C154.505 219.391 155.03 220.594 155.556 221.796C155.594 221.883 155.615 221.976 155.618 222.07C155.62 222.165 155.604 222.259 155.569 222.347C155.535 222.436 155.484 222.516 155.419 222.585C155.354 222.653 155.275 222.708 155.189 222.746C155.097 222.783 154.999 222.8 154.901 222.797Z" fill="white"/>
<path d="M163.253 241.121C163.118 241.121 162.986 241.083 162.871 241.012C162.756 240.941 162.664 240.839 162.605 240.718C160.243 235.944 158.04 231.026 156.017 226.418C155.978 226.332 155.958 226.239 155.955 226.144C155.953 226.05 155.969 225.955 156.003 225.867C156.038 225.779 156.089 225.698 156.154 225.63C156.219 225.561 156.297 225.506 156.384 225.468C156.471 225.43 156.564 225.409 156.658 225.406C156.753 225.404 156.847 225.421 156.935 225.455C157.024 225.489 157.104 225.54 157.173 225.605C157.241 225.671 157.296 225.749 157.334 225.835C159.35 230.429 161.546 235.332 163.894 240.077C163.949 240.186 163.975 240.308 163.97 240.431C163.965 240.554 163.928 240.673 163.864 240.777C163.8 240.882 163.71 240.969 163.603 241.029C163.496 241.089 163.376 241.12 163.253 241.121Z" fill="white"/>
<path d="M171.95 203.386C171.759 203.386 171.576 203.31 171.441 203.175C171.306 203.04 171.23 202.857 171.23 202.666V195.12C171.23 194.929 171.306 194.746 171.441 194.611C171.576 194.476 171.759 194.4 171.95 194.4C172.141 194.4 172.325 194.476 172.46 194.611C172.595 194.746 172.67 194.929 172.67 195.12V202.673C172.669 202.863 172.592 203.044 172.457 203.178C172.322 203.311 172.14 203.386 171.95 203.386Z" fill="white"/>
<path d="M171.994 212.033C171.803 212.033 171.62 211.958 171.485 211.823C171.349 211.688 171.274 211.504 171.274 211.313L171.23 207.533C171.23 207.343 171.306 207.159 171.441 207.024C171.576 206.889 171.759 206.813 171.95 206.813C172.141 206.813 172.325 206.889 172.46 207.024C172.595 207.159 172.67 207.343 172.67 207.533L172.714 211.321C172.714 211.512 172.638 211.695 172.503 211.83C172.368 211.965 172.185 212.041 171.994 212.041V212.033Z" fill="white"/>
<path d="M172.03 231.704C171.839 231.704 171.656 231.628 171.521 231.493C171.385 231.358 171.31 231.175 171.31 230.984C171.31 225.944 171.31 220.81 171.31 215.626C171.31 215.435 171.385 215.252 171.521 215.117C171.656 214.982 171.839 214.906 172.03 214.906C172.221 214.906 172.404 214.982 172.539 215.117C172.674 215.252 172.75 215.435 172.75 215.626C172.75 220.81 172.786 225.98 172.75 230.998C172.746 231.187 172.668 231.366 172.534 231.498C172.399 231.63 172.218 231.704 172.03 231.704Z" fill="white"/>
<path d="M171.95 241.121C171.759 241.121 171.576 241.045 171.441 240.91C171.306 240.775 171.23 240.592 171.23 240.401C171.23 238.91 171.266 237.427 171.281 235.937C171.281 235.746 171.357 235.563 171.492 235.428C171.627 235.293 171.81 235.217 172.001 235.217C172.192 235.217 172.375 235.293 172.51 235.428C172.645 235.563 172.721 235.746 172.721 235.937C172.721 237.427 172.721 238.91 172.67 240.401C172.67 240.592 172.595 240.775 172.46 240.91C172.325 241.045 172.141 241.121 171.95 241.121Z" fill="white"/>
<path d="M198.403 211.069C198.262 211.07 198.122 211.032 198 210.961C197.918 210.912 197.847 210.847 197.791 210.771C197.734 210.694 197.693 210.608 197.67 210.515C197.648 210.423 197.643 210.327 197.658 210.233C197.673 210.139 197.706 210.048 197.755 209.967L199.915 206.41C199.954 206.315 200.014 206.23 200.089 206.159C200.164 206.089 200.253 206.036 200.351 206.003C200.448 205.97 200.552 205.958 200.654 205.969C200.757 205.979 200.856 206.011 200.944 206.063C201.033 206.115 201.11 206.186 201.169 206.27C201.229 206.354 201.269 206.45 201.288 206.551C201.307 206.652 201.305 206.756 201.28 206.856C201.256 206.956 201.21 207.05 201.146 207.13L198.986 210.694C198.929 210.801 198.845 210.891 198.743 210.956C198.641 211.022 198.524 211.061 198.403 211.069Z" fill="white"/>
<path d="M188.496 227.261C188.367 227.261 188.24 227.226 188.129 227.16C187.965 227.063 187.846 226.904 187.799 226.719C187.751 226.534 187.779 226.338 187.877 226.174C189.936 222.675 192.679 218.081 195.595 213.61C195.7 213.451 195.863 213.34 196.049 213.301C196.235 213.261 196.429 213.298 196.589 213.401C196.669 213.453 196.737 213.52 196.791 213.598C196.845 213.677 196.882 213.765 196.902 213.858C196.921 213.951 196.922 214.047 196.904 214.14C196.886 214.234 196.85 214.323 196.798 214.402C193.918 218.844 191.167 223.416 189.115 226.908C189.051 227.016 188.961 227.105 188.852 227.167C188.744 227.229 188.621 227.261 188.496 227.261Z" fill="white"/>
<path d="M183.859 235.167C183.73 235.165 183.604 235.131 183.492 235.067C183.328 234.969 183.209 234.811 183.162 234.626C183.114 234.441 183.143 234.244 183.24 234.08L185.458 230.3C185.554 230.137 185.711 230.018 185.894 229.969C186.077 229.921 186.272 229.947 186.437 230.041C186.519 230.089 186.59 230.152 186.648 230.227C186.705 230.303 186.747 230.389 186.771 230.48C186.795 230.572 186.801 230.668 186.788 230.761C186.775 230.855 186.744 230.946 186.696 231.027L184.478 234.815C184.415 234.922 184.324 235.011 184.216 235.073C184.107 235.135 183.984 235.167 183.859 235.167Z" fill="white"/>
<path d="M179.59 242.259C179.457 242.258 179.328 242.22 179.215 242.151C179.134 242.101 179.064 242.036 179.008 241.959C178.952 241.883 178.912 241.796 178.89 241.703C178.868 241.611 178.864 241.515 178.879 241.421C178.894 241.328 178.928 241.238 178.978 241.157C179.573 240.197 180.163 239.237 180.749 238.277C180.854 238.133 181.008 238.033 181.183 237.996C181.357 237.959 181.539 237.988 181.693 238.078C181.847 238.168 181.962 238.311 182.017 238.481C182.071 238.651 182.061 238.835 181.987 238.997C181.397 239.969 180.806 240.941 180.202 241.913C180.138 242.018 180.048 242.105 179.941 242.166C179.834 242.226 179.713 242.258 179.59 242.259Z" fill="white"/>
</g>
</svg>
